<?xml version="1.0" encoding="UTF-8"?>
<svg version="1.1" xmlns="http://www.w3.org/2000/svg" width="312" height="312" viewBox="0 0 312 312">
<defs>
  <clipPath id="rounded">
    <rect x="0" y="0" width="312" height="312" rx="60" ry="60"/>
  </clipPath>
</defs>
<g clip-path="url(#rounded)">
<rect width="312" height="312" fill="#693837" rx="60" ry="60"/>
<path d="M0 0 C32.44067045 -0.96167995 32.44067045 -0.96167995 48 5 C49.12148437 5.40734375 50.24296875 5.8146875 51.3984375 6.234375 C62.75313138 10.63896658 71.77309642 17.15428414 81 25 C81.97453125 25.77150391 81.97453125 25.77150391 82.96875 26.55859375 C97.71420983 38.38847402 106.81702799 57.5080953 111.3125 75.5 C111.48426758 76.16362549 111.65603516 76.82725098 111.83300781 77.51098633 C112.82953532 81.81488252 113.07747264 85.85844165 113.04370117 90.27929688 C113.03423714 91.88943665 113.03423714 91.88943665 113.02458191 93.53210449 C113.01646988 94.34651001 113.00835785 95.16091553 113 96 C113.80464691 95.99111755 114.60929382 95.98223511 115.43832397 95.9730835 C123.05813795 95.89260551 130.67774297 95.83186823 138.29787254 95.79275131 C142.21455539 95.77196408 146.13088415 95.74381128 150.04736328 95.69824219 C153.83401546 95.65446435 157.62032921 95.6307964 161.40721512 95.62049103 C162.84478704 95.61315641 164.28234251 95.59883501 165.71976852 95.57707977 C177.50879101 95.40591139 186.63986306 97.23945245 195.890625 104.8828125 C203.57489955 112.59554733 207.22885433 121.61502921 207.22659302 132.3951416 C207.21627045 133.14130737 207.20594788 133.88747314 207.1953125 134.65625 C207.1924826 135.44398804 207.18965271 136.23172607 207.18673706 137.04333496 C207.17565169 139.52905264 207.1505701 142.0143935 207.125 144.5 C207.1149551 146.19791142 207.10583191 147.89582855 207.09765625 149.59375 C207.07746253 153.7294243 207.03829355 157.8642965 207 162 C200.4 162 193.8 162 187 162 C186.96132813 158.20628906 186.96132813 158.20628906 186.921875 154.3359375 C186.88340916 151.87342428 186.83826378 149.41111724 186.79248047 146.94873047 C186.76433913 145.24375329 186.74309065 143.53864731 186.72900391 141.83349609 C186.70747863 139.37530911 186.660783 136.91865952 186.609375 134.4609375 C186.60753204 133.32620499 186.60753204 133.32620499 186.60565186 132.16854858 C186.42921304 125.72348541 184.25119448 122.23670683 179.64794922 117.66308594 C174.38677839 114.49527623 167.56406022 115.39423995 161.6328125 115.390625 C160.22889305 115.37563136 158.82499117 115.35890173 157.42111206 115.34051514 C153.74193478 115.29696118 150.06299539 115.27686949 146.38360596 115.26177979 C142.62278242 115.24216517 138.86221418 115.20020024 135.1015625 115.16015625 C127.73444383 115.084984 120.36743276 115.03461447 113 115 C113.46112693 117.70640957 113.92659084 120.41195482 114.39453125 123.1171875 C114.52347778 123.87668701 114.65242432 124.63618652 114.78527832 125.41870117 C117.9979834 143.89798155 126.24264437 159.32425716 140 172 C141.64834761 173.02991646 143.31243867 174.03567924 145 175 C145.4846875 175.49628906 145.969375 175.99257812 146.46875 176.50390625 C152.55011036 182.44564354 162.99673569 185.51310996 171 188 C172.12921875 188.35320312 173.2584375 188.70640625 174.421875 189.0703125 C180.66199887 190.59430315 187.11100795 190.46917093 193.5 190.625 C195.4490625 190.68300781 195.4490625 190.68300781 197.4375 190.7421875 C200.62486286 190.83593347 203.8122279 190.92164349 207 191 C207.02888514 194.14581423 207.04675923 197.29159469 207.0625 200.4375 C207.07087891 201.33533203 207.07925781 202.23316406 207.08789062 203.15820312 C207.09111328 204.01220703 207.09433594 204.86621094 207.09765625 205.74609375 C207.10289307 206.53685303 207.10812988 207.3276123 207.11352539 208.14233398 C207 210 207 210 206 211 C201.7155422 211.28557283 197.41781201 211.23200079 193.125 211.25 C191.93390625 211.270625 190.7428125 211.29125 189.515625 211.3125 C181.81323454 211.34620849 175.31130961 210.35800248 168 208 C166.79730469 207.69578125 165.59460938 207.3915625 164.35546875 207.078125 C147.61798537 202.70285191 133.99839096 194.38419131 122 182 C121.20980469 181.195625 120.41960937 180.39125 119.60546875 179.5625 C113.26068371 172.83846287 108.54479306 166.0725695 104 158 C103.40251953 156.99066406 103.40251953 156.99066406 102.79296875 155.9609375 C97.0965529 145.65746022 93.81840893 132.7959246 93.9375 121.125 C93.94652344 119.97257812 93.95554687 118.82015625 93.96484375 117.6328125 C93.97644531 116.76398438 93.98804688 115.89515625 94 115 C93.19535309 115.00888245 92.39070618 115.01776489 91.56167603 115.0269165 C83.94186205 115.10739449 76.32225703 115.16813177 68.70212746 115.20724869 C64.78544461 115.22803592 60.86911585 115.25618872 56.95263672 115.30175781 C53.16598454 115.34553565 49.37967079 115.3692036 45.59278488 115.37950897 C44.15521296 115.38684359 42.71765749 115.40116499 41.28023148 115.42292023 C29.84382073 115.58896893 19.69026178 114.02834995 11 106 C2.86583195 97.06221534 -0.17845161 87.55966961 -0.09765625 75.63671875 C-0.0962413 74.84473587 -0.09482635 74.05275299 -0.09336853 73.23677063 C-0.08779457 70.72030781 -0.07524693 68.20393569 -0.0625 65.6875 C-0.05748163 63.97591275 -0.05291931 62.26432409 -0.04882812 60.55273438 C-0.03868681 56.36842698 -0.01910646 52.18431438 0 48 C6.6 48 13.2 48 20 48 C20.03738281 50.52914062 20.07476562 53.05828125 20.11328125 55.6640625 C20.15955635 58.1265504 20.2107681 60.58888989 20.26245117 63.05126953 C20.29560636 64.75625512 20.32366737 66.46134798 20.34643555 68.16650391 C20.38015568 70.62448634 20.43247794 73.08149406 20.48828125 75.5390625 C20.49467117 76.29555084 20.5010611 77.05203918 20.50764465 77.83145142 C20.67376303 83.87636846 21.93796293 87.89530616 26.28955078 92.33691406 C31.59886305 95.47888217 38.40270018 94.60573979 44.3671875 94.609375 C45.77110695 94.62436864 47.17500883 94.64109827 48.57888794 94.65948486 C52.25806522 94.70303882 55.93700461 94.72313051 59.61639404 94.73822021 C63.37721758 94.75783483 67.13778582 94.79979976 70.8984375 94.83984375 C78.26555617 94.915016 85.63256724 94.96538553 93 95 C92.70776453 92.29611446 92.40859385 89.59329342 92.10546875 86.890625 C91.98359192 85.75294678 91.98359192 85.75294678 91.85925293 84.59228516 C89.61464041 64.82263377 79.0469373 49.47519585 64.3125 36.75 C48.81434819 24.89119055 30.59860005 19.93559101 11.375 19.375 C9.72564453 19.31699219 9.72564453 19.31699219 8.04296875 19.2578125 C5.36222332 19.16456918 2.68113584 19.08124654 0 19 C0 12.73 0 6.46 0 0 Z " fill="#F5F5F6" transform="translate(50,50)"/>
<path d="M0 0 C7.2839646 5.89749962 12.17097467 12.48263012 16 21 C16.33902344 21.70382813 16.67804688 22.40765625 17.02734375 23.1328125 C21.81229023 34.73134636 19.48634596 49.17518483 14.9375 60.4375 C12.00338868 66.61730969 7.84340109 71.2321459 3 76 C2.41089844 76.5878125 1.82179688 77.175625 1.21484375 77.78125 C-7.76989839 86.10753586 -18.90827735 89.40095017 -30.9375 89.3125 C-31.73091797 89.30758545 -32.52433594 89.3026709 -33.34179688 89.29760742 C-39.06150964 89.1828601 -43.80754481 88.50985603 -49 86 C-49.79277344 85.67128906 -50.58554688 85.34257812 -51.40234375 85.00390625 C-63.22050072 79.74127549 -72.1666501 70.39241451 -77.05859375 58.40625 C-77.77907648 56.28272195 -78.41400763 54.16366412 -79 52 C-79.495 50.515 -79.495 50.515 -80 49 C-80.99344821 33.26768902 -79.13467855 19.72637115 -69 7 C-50.01217417 -13.18242414 -22.96013832 -15.29715614 0 0 Z " fill="#F4F5F6" transform="translate(243,47)"/>
<path d="M0 0 C3.96 0 7.92 0 12 0 C12.515625 1.8975 13.03125 3.795 13.5625 5.75 C17.73770738 19.19856273 24.26841535 28.16828478 36.3125 35.3125 C41.79737741 38.19321293 46.88002447 39.20519798 53 40 C53 43.96 53 47.92 53 52 C51.7625 52.226875 50.525 52.45375 49.25 52.6875 C36.71750876 55.54475036 27.09110145 60.88642441 19.625 71.5 C15.51367016 78.13962686 13.69158622 84.25423431 13 92 C8.71 92 4.42 92 0 92 C-0.20625 90.411875 -0.4125 88.82375 -0.625 87.1875 C-2.24423556 78.28744639 -6.36503522 71.06625352 -13 65 C-13.495 63.515 -13.495 63.515 -14 62 C-16.27420469 60.93114922 -16.27420469 60.93114922 -19 60 C-20.92275965 59.01176599 -22.83913401 58.0110402 -24.75 57 C-29.84744518 54.4134251 -34.37665725 52.93722379 -40 52 C-40 48.37 -40 44.74 -40 41 C-39.01515625 40.75378906 -38.0303125 40.50757813 -37.015625 40.25390625 C-32.6466337 39.00546589 -28.76664371 37.03199985 -24.75 34.9375 C-17.31677796 31.10559265 -17.31677796 31.10559265 -14 30 C-13.31379969 28.67661368 -12.65213539 27.34050052 -12 26 C-11.236875 25.13375 -10.47375 24.2675 -9.6875 23.375 C-3.83946835 16.48885623 -1.38188063 8.79378582 0 0 Z " fill="#F6F6F7" transform="translate(86,182)"/>
<path d="M0 0 C5.73274852 4.54110978 9.9258985 10.10269707 10.99316406 17.47753906 C11.82613032 26.56482422 11.52184818 35.07362888 5.7109375 42.52734375 C-0.32389832 49.33435344 -7.16557271 53.83815408 -16.30859375 54.8671875 C-25.57771267 55.15866923 -31.29665692 53.44792369 -38.4140625 47.52734375 C-45.45005111 40.78452133 -49.5701412 34.3740762 -49.9140625 24.46484375 C-49.41899243 14.61725429 -46.6555812 7.91742601 -39.375 1.21875 C-27.88625127 -8.09703314 -12.32033104 -7.9262198 0 0 Z " fill="#693837" transform="translate(231.2890625,62.47265625)"/>
<path d="M0 0 C0.350625 1.258125 0.70125 2.51625 1.0625 3.8125 C4.98788479 15.38875052 12.63549948 24.92766269 23.35546875 30.85546875 C36.41758397 37.06919814 51.05729768 38.34682895 64.93359375 33.65625 C67 33 67 33 70 33 C69 36 69 36 67.27734375 36.94921875 C60.91898988 38.95544393 55.13731909 39.2464504 48.53491211 38.97729492 C44.80346668 38.85177229 42.16762424 38.91261685 39 41 C39 41.66 39 42.32 39 43 C38.34 43 37.68 43 37 43 C37 43.66 37 44.32 37 45 C37.7113208 44.98952637 38.4226416 44.97905273 39.15551758 44.96826172 C42.37447586 44.92671999 45.59337776 44.90067961 48.8125 44.875 C49.93205078 44.85824219 51.05160156 44.84148437 52.20507812 44.82421875 C53.27822266 44.81777344 54.35136719 44.81132812 55.45703125 44.8046875 C56.9416687 44.78897705 56.9416687 44.78897705 58.45629883 44.77294922 C61 45 61 45 64 47 C42.22 47 20.44 47 -2 47 C-2.66 41.72 -3.32 36.44 -4 31 C-5.88813482 21.20478528 -8.81093611 12.06485956 -13 3 C-11.109375 2.41015625 -11.109375 2.41015625 -9 2 C-7.25 3.4375 -7.25 3.4375 -6 5 C-5.195625 4.175 -4.39125 3.35 -3.5625 2.5 C-1 0 -1 0 0 0 Z " fill="#6D4241" transform="translate(165,99)"/>
<path d="M0 0 C1.32 0.66 2.64 1.32 4 2 C4 2.66 4 3.32 4 4 C6.93720508 5.52299523 9.9168649 6.80100302 13 8 C13 8.66 13 9.32 13 10 C19.66665689 10.02966407 26.33329056 10.04929293 33 10.0625 C33.9804126 10.064776 34.9608252 10.067052 35.97094727 10.06939697 C48.46416432 10.09174482 60.91207651 10.02377633 73.3828125 9.17993164 C74.23617187 9.12828857 75.08953125 9.07664551 75.96875 9.0234375 C76.68482422 8.97106934 77.40089844 8.91870117 78.13867188 8.86474609 C80 9 80 9 83 11 C82.67 11.66 82.34 12.32 82 13 C73.69781725 13.09309675 65.39585628 13.16396427 57.09327888 13.20724869 C53.23712721 13.22803376 49.38133531 13.25618242 45.52539062 13.30175781 C41.79709259 13.34554361 38.06913839 13.36920521 34.34060287 13.37950897 C32.92535879 13.3868422 31.51013136 13.40116079 30.09503555 13.42292023 C18.16441869 13.59890772 9.27331175 11.69487571 0 4 C-0.33 3.01 -0.66 2.02 -1 1 C-0.67 0.67 -0.34 0.34 0 0 Z " fill="#E4D9D9" transform="translate(61,152)"/>
<path d="M0 0 C6.82758762 2.1529501 10.7340462 7.96304477 14.14453125 14.0390625 C16.84393313 20.07614848 17.14184907 25.84175822 17.09765625 32.36328125 C17.0962413 33.15526413 17.09482635 33.94724701 17.09336853 34.76322937 C17.08779457 37.27969219 17.07524693 39.79606431 17.0625 42.3125 C17.05748163 44.02408725 17.05291931 45.73567591 17.04882812 47.44726562 C17.03868681 51.63157302 17.01910646 55.81568562 17 60 C10.4 60 3.8 60 -3 60 C-3 48.45 -3 36.9 -3 25 C-2.67 25 -2.34 25 -2 25 C-1.97494385 25.96413818 -1.9498877 26.92827637 -1.92407227 27.92163086 C-1.83014694 31.48687842 -1.72989061 35.05192433 -1.62768555 38.61694336 C-1.58428015 40.16214289 -1.54260929 41.70739214 -1.50268555 43.25268555 C-1.44511801 45.46939096 -1.38138576 47.6858448 -1.31640625 49.90234375 C-1.29969376 50.5971434 -1.28298126 51.29194305 -1.26576233 52.00779724 C-1.43497144 55.28762029 -1.43497144 55.28762029 0 58 C5.28 58.33 10.56 58.66 16 59 C15.34 47.45 14.68 35.9 14 24 C13.34 24 12.68 24 12 24 C12 23.01 12 22.02 12 21 C11.34 21 10.68 21 10 21 C9.87625 19.783125 9.7525 18.56625 9.625 17.3125 C9.20570894 13.92223231 8.42814458 11.12406628 7 8 C6.67 7.01 6.34 6.02 6 5 C5.01 5.33 4.02 5.66 3 6 C3 5.34 3 4.68 3 4 C2.34 4 1.68 4 1 4 C0.67 2.68 0.34 1.36 0 0 Z " fill="#D9CCCB" transform="translate(240,152)"/>
<path d="M0 0 C6.6 0 13.2 0 20 0 C20.03738281 2.52914062 20.07476562 5.05828125 20.11328125 7.6640625 C20.15955635 10.1265504 20.2107681 12.58888989 20.26245117 15.05126953 C20.29560636 16.75625512 20.32366737 18.46134798 20.34643555 20.16650391 C20.38015568 22.62448634 20.43247794 25.08149406 20.48828125 27.5390625 C20.49467117 28.29555084 20.5010611 29.05203918 20.50764465 29.83145142 C20.67590304 35.9542419 22.59422627 39.89133941 26 45 C21.71231211 45 20.4047166 44.29791762 17.26953125 41.49609375 C15.23543849 39.09899366 15 37.08497582 15 34 C15.48786987 33.09604492 15.48786987 33.09604492 15.9855957 32.17382812 C17.27394297 29.41295109 17.24294893 27.32152073 17.23046875 24.28125 C17.22853516 23.18425781 17.22660156 22.08726563 17.22460938 20.95703125 C17.21236328 19.81621094 17.20011719 18.67539063 17.1875 17.5 C17.18685547 16.35917969 17.18621094 15.21835938 17.18554688 14.04296875 C17.16123119 9.44460257 17.1206996 5.4827984 16 1 C11.05 1 6.1 1 1 1 C1 12.55 1 24.1 1 36 C0.67 36 0.34 36 0 36 C0 24.12 0 12.24 0 0 Z " fill="#D7CAC9" transform="translate(50,98)"/>
<path d="M0 0 C0.66 0 1.32 0 2 0 C2 0.66 2 1.32 2 2 C2.56661346 1.99555878 3.13322693 1.99111755 3.7170105 1.98654175 C9.65506448 1.94203216 15.59307047 1.91201975 21.53125 1.89013672 C23.74253263 1.88012653 25.95380218 1.86651432 28.16503906 1.84912109 C31.35745487 1.82465262 34.54969449 1.81346675 37.7421875 1.8046875 C39.20686966 1.78920364 39.20686966 1.78920364 40.70114136 1.77340698 C47.0268433 1.77239065 52.84952764 2.52175375 59 4 C59 4.33 59 4.66 59 5 C38.54 5 18.08 5 -3 5 C-2.34 4.67 -1.68 4.34 -1 4 C-0.34786708 1.97536745 -0.34786708 1.97536745 0 0 Z " fill="#E4DEDC" transform="translate(166,160)"/>
<path d="M0 0 C0.33 0 0.66 0 1 0 C1 1.65 1 3.3 1 5 C-2.96 5 -6.92 5 -11 5 C-11 5.66 -11 6.32 -11 7 C-17.70768928 7.07628074 -24.41526601 7.12869663 -31.12329102 7.16479492 C-33.40360698 7.17984918 -35.68389414 7.20029708 -37.96411133 7.22631836 C-41.24828209 7.26284894 -44.53206885 7.27976039 -47.81640625 7.29296875 C-48.83021866 7.30845261 -49.84403107 7.32393646 -50.88856506 7.33988953 C-56.72514519 7.34126649 -60.82025737 6.73998588 -66 4 C-65.67 3.34 -65.34 2.68 -65 2 C-64.34 2.33 -63.68 2.66 -63 3 C-60.99902482 3.12027472 -58.9941379 3.17737258 -56.98974609 3.20532227 C-55.72858978 3.22526749 -54.46743347 3.24521271 -53.1680603 3.26576233 C-51.78652063 3.28274665 -50.40497966 3.29962546 -49.0234375 3.31640625 C-47.61381418 3.3369756 -46.20419703 3.35797207 -44.79458618 3.37937927 C-41.08252965 3.43460195 -37.37041743 3.48401031 -33.65826416 3.53222656 C-29.87108397 3.58244018 -26.08398474 3.63812697 -22.296875 3.69335938 C-14.86465188 3.80094333 -7.43236148 3.90238773 0 4 C0 2.68 0 1.36 0 0 Z " fill="#DBCCCF" transform="translate(143,141)"/>
<path d="M0 0 C7.59 0 15.18 0 23 0 C23.020625 3.114375 23.04125 6.22875 23.0625 9.4375 C23.071604 10.42032959 23.08070801 11.40315918 23.09008789 12.41577148 C23.09258545 13.18477783 23.09508301 13.95378418 23.09765625 14.74609375 C23.10289307 15.53685303 23.10812988 16.3276123 23.11352539 17.14233398 C23 19 23 19 22 20 C17.67303535 20.25663317 13.33365348 20.18524524 9 20.1875 C7.79214844 20.19974609 6.58429688 20.21199219 5.33984375 20.22460938 C-1.43875487 20.23567346 -7.45441744 19.78451766 -14 18 C-14 17.67 -14 17.34 -14 17 C-2.45 17.33 9.1 17.66 21 18 C21 12.72 21 7.44 21 2 C14.07 1.67 7.14 1.34 0 1 C0 0.67 0 0.34 0 0 Z " fill="#CEBDBD" transform="translate(234,241)"/>
<path d="M0 0 C4.12615882 -0.04618834 8.25164948 -0.08592894 12.37792969 -0.10986328 C13.77835142 -0.11985248 15.17875268 -0.13344854 16.57910156 -0.15087891 C23.96906389 -0.24048615 30.90769811 -0.32144933 38 2 C38 2.33 38 2.66 38 3 C27.11 3 16.22 3 5 3 C5 2.34 5 1.68 5 1 C3.68 1 2.36 1 1 1 C1 6.61 1 12.22 1 18 C8.59 18 16.18 18 24 18 C24 18.33 24 18.66 24 19 C16.08 19 8.16 19 0 19 C0 12.73 0 6.46 0 0 Z " fill="#E8DBD9" transform="translate(50,50)"/>
<path d="M0 0 C0.66 0.33 1.32 0.66 2 1 C1.690625 1.721875 1.38125 2.44375 1.0625 3.1875 C0.07439461 5.80307309 -0.5287754 8.25118982 -1 11 C-2.010625 11.268125 -3.02125 11.53625 -4.0625 11.8125 C-7.85856982 12.89380474 -11.39212026 14.39649789 -15 16 C-16.65816784 16.68753301 -18.32459336 17.35561283 -20 18 C-20.99 18.391875 -21.98 18.78375 -23 19.1875 C-26.16704297 20.0452408 -27.89094829 19.91442697 -31 19 C-31 18.67 -31 18.34 -31 18 C-29.783125 17.814375 -28.56625 17.62875 -27.3125 17.4375 C-21.59464794 16.20120766 -16.86982793 13.42953574 -11.8203125 10.55859375 C-9 9 -9 9 -6 8 C-5.31513275 6.67592331 -4.65129797 5.34090759 -4 4 C-2.70529025 2.62913085 -1.37849103 1.28659163 0 0 Z " fill="#EFF0F0" transform="translate(78,204)"/>
<path d="M0 0 C0.495 1.98 0.495 1.98 1 4 C0.37609375 4.07089844 -0.2478125 4.14179687 -0.890625 4.21484375 C-3.19229321 4.80004532 -3.19229321 4.80004532 -4.046875 7.06640625 C-4.27890625 7.89011719 -4.5109375 8.71382812 -4.75 9.5625 C-4.99234375 10.38878906 -5.2346875 11.21507813 -5.484375 12.06640625 C-5.65453125 12.70449219 -5.8246875 13.34257813 -6 14 C-10.09292917 14.19222407 -14.18620091 14.3709507 -18.28027344 14.53710938 C-19.67333833 14.59555965 -21.0662528 14.65771628 -22.45898438 14.72363281 C-24.45920227 14.81766015 -26.46007932 14.89732059 -28.4609375 14.9765625 C-29.66540527 15.02893066 -30.86987305 15.08129883 -32.11083984 15.13525391 C-35 15 -35 15 -37 13 C-36.34 12.34 -35.68 11.68 -35 11 C-33.2265625 11.35546875 -33.2265625 11.35546875 -31 12 C-21.64541826 12.83670013 -13.90815393 11.83289517 -6.37890625 5.953125 C-4.18739332 4.02486713 -2.06871016 2.05871639 0 0 Z " fill="#E5DEDF" transform="translate(237,104)"/>
<path d="M0 0 C0.99 0 1.98 0 3 0 C4.03502595 6.21015567 4.07052305 12.26239246 3.96289062 18.5390625 C3.8320691 22.39521213 3.8320691 22.39521213 5 26 C4.2884375 26.680625 4.2884375 26.680625 3.5625 27.375 C1.90972192 28.93258204 1.90972192 28.93258204 1 31 C-0.32 30.67 -1.64 30.34 -3 30 C-2.51015625 29.02289063 -2.0203125 28.04578125 -1.515625 27.0390625 C0.31204129 22.76662377 0.37976759 18.96552855 0.25 14.375 C0.24484375 13.63765625 0.2396875 12.9003125 0.234375 12.140625 C0.17931738 8.30035593 -0.2240303 4.75052024 -1 1 C-0.67 0.67 -0.34 0.34 0 0 Z M5 0 C5.33 0.99 5.66 1.98 6 3 C5.34 2.67 4.68 2.34 4 2 C4.33 1.34 4.66 0.68 5 0 Z " fill="#ECEEEA" transform="translate(241,72)"/>
<path d="M0 0 C0.33 0 0.66 0 1 0 C1 11.22 1 22.44 1 34 C0.01 33.67 -0.98 33.34 -2 33 C-2.33 33.66 -2.66 34.32 -3 35 C-4.13129791 29.97200929 -3.85122426 26.02222315 -3 21 C-2.67 20.67 -2.34 20.34 -2 20 C-1.85578846 18.59802598 -1.77313876 17.18957169 -1.71875 15.78125 C-1.68136719 14.93175781 -1.64398438 14.08226562 -1.60546875 13.20703125 C-1.57066406 12.31371094 -1.53585938 11.42039063 -1.5 10.5 C-1.43140557 8.73940962 -1.35871048 6.97897259 -1.28125 5.21875 C-1.25095703 4.43435547 -1.22066406 3.64996094 -1.18945312 2.84179688 C-1 1 -1 1 0 0 Z " fill="#5E3A3A" transform="translate(236,180)"/>
<path d="M0 0 C5.0673448 5.0673448 5.29988227 12.20850532 5.3125 19 C5.14692931 33.85307069 5.14692931 33.85307069 1 38 C0.11722245 33.48184719 -0.10589503 29.22487306 -0.0625 24.625 C-0.05347656 23.37976563 -0.04445313 22.13453125 -0.03515625 20.8515625 C-0.02355469 19.91054687 -0.01195312 18.96953125 0 18 C0.66 19.32 1.32 20.64 2 22 C3.22236309 16.98831131 2.48060253 13.87727894 1 9 C0.875 5.5625 0.875 5.5625 1 3 C0.34 2.67 -0.32 2.34 -1 2 C-0.67 1.34 -0.34 0.68 0 0 Z " fill="#E8E3E1" transform="translate(257,66)"/>
<path d="M0 0 C3.7521117 -0.34903365 5.46438384 -0.39191427 8.5625 1.875 C9.366875 2.57625 10.17125 3.2775 11 4 C14.63481173 5.76529318 17.49754021 6.24025095 21.51953125 6.1953125 C22.54111328 6.18886719 23.56269531 6.18242187 24.61523438 6.17578125 C25.67033203 6.15902344 26.72542969 6.14226562 27.8125 6.125 C28.88693359 6.11597656 29.96136719 6.10695312 31.06835938 6.09765625 C33.71246854 6.07415306 36.35611872 6.04129575 39 6 C39.33 5.34 39.66 4.68 40 4 C42.475 4.99 42.475 4.99 45 6 C37.4939675 11.00402167 24.8204671 10.02099354 16.171875 8.50390625 C14.00201144 7.81314033 12.04336174 7.00403187 10 6 C9.09121094 5.566875 8.18242187 5.13375 7.24609375 4.6875 C4.80953337 3.49463595 2.39866785 2.2669373 0 1 C0 0.67 0 0.34 0 0 Z " fill="#DED4D3" transform="translate(184,127)"/>
<path d="M0 0 C4.71403788 0.47939368 8.66579301 0.96834048 13 3 C13 3.66 13 4.32 13 5 C14.32 5 15.64 5 17 5 C17.33 5 17.66 5 18 5 C18.268125 5.9075 18.53625 6.815 18.8125 7.75 C19.89576294 10.71471963 20.98359457 12.6169754 23 15 C22.34 15.66 21.68 16.32 21 17 C20.32195312 16.34773438 19.64390625 15.69546875 18.9453125 15.0234375 C13.5239977 9.93250754 8.36704262 5.66339976 1.80078125 2.05859375 C1.20652344 1.70925781 0.61226563 1.35992187 0 1 C0 0.67 0 0.34 0 0 Z " fill="#EBF1ED" transform="translate(102,78)"/>
<path d="M0 0 C0.66 0.33 1.32 0.66 2 1 C0.07538221 5.55830529 -1.42944397 7.94324978 -6 10 C-6.99 10 -7.98 10 -9 10 C-8.79375 10.7425 -8.5875 11.485 -8.375 12.25 C-7.95591249 15.32330841 -8.38050989 16.42786866 -10 19 C-10.99 19 -11.98 19 -13 19 C-14.68798827 20.43750191 -14.68798827 20.43750191 -16 22 C-16.33 21.34 -16.66 20.68 -17 20 C-13.06299892 11.68539484 -7.04059314 5.73730427 0 0 Z " fill="#DFD6D5" transform="translate(184,45)"/>
<path d="M0 0 C2.97 0.33 5.94 0.66 9 1 C9 1.66 9 2.32 9 3 C10.65 3.66 12.3 4.32 14 5 C14 5.66 14 6.32 14 7 C13.18660156 6.7834375 12.37320313 6.566875 11.53515625 6.34375 C1.84731826 3.9898996 -7.08330921 3.67584667 -17 4 C-17.33 3.34 -17.66 2.68 -18 2 C-11.96496237 0.49124059 -6.10261631 1.35813906 0 2 C0 1.34 0 0.68 0 0 Z " fill="#674544" transform="translate(218,34)"/>
<path d="M0 0 C0.66 2.64 1.32 5.28 2 8 C0.68 7.67 -0.64 7.34 -2 7 C-2.99 8.98 -3.98 10.96 -5 13 C-5.45375 12.505 -5.9075 12.01 -6.375 11.5 C-7.87635519 9.77390663 -7.87635519 9.77390663 -10 10 C-10.99 7.69 -11.98 5.38 -13 3 C-11.1875 2.3125 -11.1875 2.3125 -9 2 C-7.25 3.4375 -7.25 3.4375 -6 5 C-5.195625 4.175 -4.39125 3.35 -3.5625 2.5 C-1 0 -1 0 0 0 Z " fill="#6C4545" transform="translate(165,99)"/>
<path d="M0 0 C25.76376337 -0.61916858 25.76376337 -0.61916858 38 3 C38 3.66 38 4.32 38 5 C32.54447907 6.50026826 28.93327986 5.3783354 24 3 C23.67 2.67 23.34 2.34 23 2 C21.29436222 1.84259395 19.58272756 1.74906608 17.87109375 1.68359375 C16.83662109 1.64169922 15.80214844 1.59980469 14.73632812 1.55664062 C13.64771484 1.51732422 12.55910156 1.47800781 11.4375 1.4375 C10.34501953 1.39431641 9.25253906 1.35113281 8.12695312 1.30664062 C5.41810436 1.20017932 2.70916008 1.09816484 0 1 C0 0.67 0 0.34 0 0 Z " fill="#705350" transform="translate(50,69)"/>
<path d="M0 0 C2.29160319 -0.02692484 4.58329546 -0.04636124 6.875 -0.0625 C8.15117188 -0.07410156 9.42734375 -0.08570312 10.7421875 -0.09765625 C14 0 14 0 16 1 C16 1.66 16 2.32 16 3 C16.7425 3 17.485 3 18.25 3 C21.16666667 3 24.08333333 3 27 3 C27.33 4.98 27.66 6.96 28 9 C26.6875 8.5625 25.375 8.125 24.0625 7.6875 C23.2375 7.41421875 22.4125 7.1409375 21.5625 6.859375 C19.95403261 6.31994996 18.34917666 5.76950007 16.75 5.203125 C11.24253836 3.27551342 5.74278721 2.01907498 0 1 C0 0.67 0 0.34 0 0 Z " fill="#D5C6C8" transform="translate(74,69)"/>
<path d="M0 0 C6.4188547 1.73624758 12.13784836 3.85180745 18 7 C18 7.33 18 7.66 18 8 C12.72 8 7.44 8 2 8 C2 5 2 5 3 3 C2.01 2.67 1.02 2.34 0 2 C0 1.34 0 0.68 0 0 Z " fill="#ECE8E7" transform="translate(94,54)"/>
<path d="M0 0 C1.32 0.33 2.64 0.66 4 1 C4 1.99 4 2.98 4 4 C6.31 4.33 8.62 4.66 11 5 C11 5.33 11 5.66 11 6 C9.02 6.33 7.04 6.66 5 7 C4.67 10.63 4.34 14.26 4 18 C3.01 18 2.02 18 1 18 C0.67 12.06 0.34 6.12 0 0 Z " fill="#5E3E3D" transform="translate(42,216)"/>
<path d="M0 0 C0.66 0 1.32 0 2 0 C2.268125 0.598125 2.53625 1.19625 2.8125 1.8125 C3.84860615 4.03794355 3.84860615 4.03794355 5.59375 5.34375 C7 7 7 7 7.07421875 9.26171875 C6.94660156 10.06222656 6.81898438 10.86273438 6.6875 11.6875 C6.50767578 12.89986328 6.50767578 12.89986328 6.32421875 14.13671875 C6.21722656 14.75160156 6.11023438 15.36648437 6 16 C5.01 16.33 4.02 16.66 3 17 C2.49622232 14.73000175 1.99709981 12.45896997 1.5 10.1875 C1.08234375 8.29064453 1.08234375 8.29064453 0.65625 6.35546875 C0 3 0 3 0 0 Z " fill="#663E40" transform="translate(159,117)"/>
<path d="M0 0 C2.97564884 2.87534607 5.61205381 5.88757233 8.1875 9.125 C9.22970703 10.42824219 9.22970703 10.42824219 10.29296875 11.7578125 C12 14 12 14 13 16 C11.68 15.67 10.36 15.34 9 15 C9 14.34 9 13.68 9 13 C8.01 13 7.02 13 6 13 C5.67 13.66 5.34 14.32 5 15 C4.731875 14.29875 4.46375 13.5975 4.1875 12.875 C3.02240863 9.9238997 3.02240863 9.9238997 1.375 6.9375 C0 4 0 4 0 0 Z " fill="#6D4C4C" transform="translate(158,215)"/>
<path d="M0 0 C6.39858267 -0.3490136 11.03110861 0.80888797 17 3 C19.32873375 3.68255989 21.66182791 4.35050775 24 5 C25.31279158 5.37397796 26.62529811 5.74895818 27.9375 6.125 C29.4534375 6.558125 29.4534375 6.558125 31 7 C30.67 7.99 30.34 8.98 30 10 C28.783125 9.5875 27.56625 9.175 26.3125 8.75 C17.62673263 5.85931086 8.91408865 3.09743262 0 1 C0 0.67 0 0.34 0 0 Z " fill="#785B5C" transform="translate(80,50)"/>
<path d="M0 0 C5.4482556 8.17238341 5.47105321 19.4742574 5 29 C2.12697331 26.12697331 2.32894879 22.93273718 1.9375 19.0625 C1.37310212 13.4544726 1.37310212 13.4544726 0 8 C-0.12781786 5.32605036 -0.04391871 2.67904143 0 0 Z " fill="#E3D4D6" transform="translate(158,117)"/>
<path d="M0 0 C1.45125134 2.90250268 0.94039197 5.39659196 0.8125 8.625 C0.73332214 15.05160309 1.7524992 18.5525793 5 24 C4.67 24.66 4.34 25.32 4 26 C3.01 25.67 2.02 25.34 1 25 C0.896875 24.29875 0.79375 23.5975 0.6875 22.875 C0.10239732 19.89564169 0.10239732 19.89564169 -1.5625 17.0625 C-3.11951042 13.74539085 -3.25819544 11.61473619 -3 8 C-2.67 8 -2.34 8 -2 8 C-1.67 6.35 -1.34 4.7 -1 3 C-1.66 2.67 -2.32 2.34 -3 2 C-2.01 1.34 -1.02 0.68 0 0 Z " fill="#E7E2DF" transform="translate(182,78)"/>
<path d="M0 0 C7.62951555 -0.34855655 13.92444501 -0.0017506 21 3 C20.67 3.99 20.34 4.98 20 6 C17.33333333 5.33333333 14.66666667 4.66666667 12 4 C12 3.34 12 2.68 12 2 C8.37 2.33 4.74 2.66 1 3 C0.67 2.01 0.34 1.02 0 0 Z M-2 2 C0 3 0 3 0 3 Z " fill="#603C40" transform="translate(206,57)"/>
<path d="M0 0 C0.66 0 1.32 0 2 0 C2.50423557 2.74928442 3.00353426 5.49931143 3.5 8.25 C3.64308594 9.02730469 3.78617188 9.80460938 3.93359375 10.60546875 C4.06894531 11.35957031 4.20429688 12.11367187 4.34375 12.890625 C4.53227539 13.92751465 4.53227539 13.92751465 4.72460938 14.98535156 C5 17 5 17 5 21 C4.34 21 3.68 21 3 21 C2.67 21.99 2.34 22.98 2 24 C0.91022351 20.73067052 0.93329059 18.36886508 1 14.9375 C1.21151052 10.81259998 1.21151052 10.81259998 0 7 C-0.04022391 4.6670134 -0.04320247 2.33293334 0 0 Z " fill="#E8DEDE" transform="translate(161,165)"/>
<path d="M0 0 C0.66 0.33 1.32 0.66 2 1 C1 4 1 4 -0.72265625 4.984375 C-8.9215085 7.66713801 -16.56329797 6.8687919 -25 6 C-25 5.67 -25 5.34 -25 5 C-23.78183594 4.89042969 -22.56367188 4.78085938 -21.30859375 4.66796875 C-19.68483712 4.50840885 -18.0611423 4.34821907 -16.4375 4.1875 C-15.63763672 4.11724609 -14.83777344 4.04699219 -14.01367188 3.97460938 C-10.05032555 3.57018628 -6.67796591 3.02270997 -3.03515625 1.36328125 C-2.03355469 0.91339844 -1.03195313 0.46351563 0 0 Z " fill="#71534F" transform="translate(233,131)"/>
<path d="M0 0 C0.99 0 1.98 0 3 0 C3.01981934 0.93271729 3.03963867 1.86543457 3.06005859 2.82641602 C3.13853043 6.31364365 3.22523514 9.80047062 3.31738281 13.28735352 C3.35547489 14.79150623 3.39036092 16.29574392 3.421875 17.80004883 C3.46795895 19.97247523 3.52587654 22.14432655 3.5859375 24.31640625 C3.6173584 25.62037354 3.6487793 26.92434082 3.68115234 28.26782227 C4.01341148 32.15698415 4.80727124 35.30254085 6 39 C5.34 39 4.68 39 4 39 C1.72407468 35.36216188 1.70581761 32.20330826 1.62109375 27.96875 C1.60409927 27.29581909 1.5871048 26.62288818 1.56959534 25.92956543 C1.5166455 23.78647151 1.47626504 21.64339364 1.4375 19.5 C1.39343991 17.35670548 1.3466183 15.2135533 1.29469299 13.07043457 C1.24834869 11.12586563 1.21074273 9.18109428 1.17358398 7.23632812 C1.03378594 4.62991059 0.76883314 2.4757589 0 0 Z " fill="#EBDFDE" transform="translate(66,99)"/>
<path d="M0 0 C3.32267541 3.0114008 5.29901994 6.00301725 7.3125 10 C7.84488281 11.03125 8.37726563 12.0625 8.92578125 13.125 C10 16 10 16 9.79296875 18.3125 C9 20 9 20 7 21 C5.875 16.25 5.875 16.25 7 14 C6.01 14 5.02 14 4 14 C3.32968281 12.0429132 2.66385317 10.08428887 2 8.125 C1.62875 7.03445312 1.2575 5.94390625 0.875 4.8203125 C0 2 0 2 0 0 Z " fill="#735558" transform="translate(129,102)"/>
<path d="M0 0 C2.97 0 5.94 0 9 0 C9 0.99 9 1.98 9 3 C10.9375006 5.18777466 10.9375006 5.18777466 13 7 C12.67 7.99 12.34 8.98 12 10 C12.66 10.33 13.32 10.66 14 11 C11 11 11 11 8.3125 8.625 C6 6 6 6 6 4 C5.195625 3.71125 4.39125 3.4225 3.5625 3.125 C1 2 1 2 0 0 Z " fill="#E3DCDC" transform="translate(66,240)"/>
<path d="M0 0 C4.29 1.65 8.58 3.3 13 5 C13 5.99 13 6.98 13 8 C11.02 8.66 9.04 9.32 7 10 C7 9.34 7 8.68 7 8 C6.34 8 5.68 8 5 8 C4.67 7.01 4.34 6.02 4 5 C2.67151309 3.99357052 1.33849671 2.99307821 0 2 C0 1.34 0 0.68 0 0 Z " fill="#E9E1E0" transform="translate(200,230)"/>
<path d="M0 0 C0.66 0.33 1.32 0.66 2 1 C1.78537109 1.81210937 1.78537109 1.81210937 1.56640625 2.640625 C0.92079535 5.32992832 0.4236692 8.02745245 -0.0625 10.75 C-0.371875 12.4825 -0.68125 14.215 -1 16 C-5.29 16 -9.58 16 -14 16 C-13.67 14.68 -13.34 13.36 -13 12 C-13 12.99 -13 13.98 -13 15 C-9.37 15 -5.74 15 -2 15 C-2.20625 13.618125 -2.4125 12.23625 -2.625 10.8125 C-3.06048678 6.97174851 -2.94311184 4.45442105 -1 1 C-0.67 0.67 -0.34 0.34 0 0 Z " fill="#D9CECB" transform="translate(100,258)"/>
<path d="M0 0 C0.66 0.33 1.32 0.66 2 1 C2 1.99 2 2.98 2 4 C1.29875 4.103125 0.5975 4.20625 -0.125 4.3125 C-3.404381 5.0966998 -6.00088885 6.46984125 -9 8 C-13.15143569 9.69446355 -15.66113658 10.2761363 -20 9 C-20 8.67 -20 8.34 -20 8 C-18.1128125 7.690625 -18.1128125 7.690625 -16.1875 7.375 C-10.97399821 6.25782104 -6.82614918 3.87168172 -2.28515625 1.14453125 C-1.15400391 0.57798828 -1.15400391 0.57798828 0 0 Z " fill="#E6DEDD" transform="translate(67,214)"/>
<path d="M0 0 C0.99 0 1.98 0 3 0 C3 3.96 3 7.92 3 12 C1.68 12.268125 0.36 12.53625 -1 12.8125 C-5.53602979 13.81172051 -9.69096784 15.27638714 -14 17 C-13.67 15.35 -13.34 13.7 -13 12 C-12.67 12.66 -12.34 13.32 -12 14 C-11.34 14 -10.68 14 -10 14 C-10 13.34 -10 12.68 -10 12 C-7.11788698 11.03929566 -5.30149956 10.89418117 -2.3125 10.9375 C-0.1778125 10.9684375 -0.1778125 10.9684375 2 11 C2 7.7 2 4.4 2 1 C1.34 0.67 0.68 0.34 0 0 Z " fill="#D0C4C2" transform="translate(136,222)"/>
<path d="M0 0 C1.32 0.66 2.64 1.32 4 2 C4 2.66 4 3.32 4 4 C6.93720508 5.52299523 9.9168649 6.80100302 13 8 C13 8.66 13 9.32 13 10 C13.66 10.33 14.32 10.66 15 11 C9.01560433 10.69310791 4.48288607 7.79393727 0 4 C-0.33 3.01 -0.66 2.02 -1 1 C-0.67 0.67 -0.34 0.34 0 0 Z " fill="#D4C8CA" transform="translate(61,152)"/>
<path d="M0 0 C0.680625 0.70125 1.36125 1.4025 2.0625 2.125 C5.20780513 5.27934337 8.5888386 8.13934304 12 11 C9 12 9 12 7 12 C5.28891311 10.37897032 3.62746694 8.70496537 2 7 C1.236875 6.236875 0.47375 5.47375 -0.3125 4.6875 C-0.869375 4.130625 -1.42625 3.57375 -2 3 C-1.34 2.01 -0.68 1.02 0 0 Z " fill="#6C494A" transform="translate(172,116)"/>
<path d="M0 0 C3.56010941 6.10706515 2.24416737 13.31260041 1 20 C0.96377667 21.66627298 0.95100158 23.33405374 1 25 C-1.03653993 21.94519011 -1.25025666 21.3435522 -1.23046875 17.91015625 C-1.22756836 16.73356445 -1.22756836 16.73356445 -1.22460938 15.53320312 C-1.21236328 14.71787109 -1.20011719 13.90253906 -1.1875 13.0625 C-1.18685547 12.25103516 -1.18621094 11.43957031 -1.18554688 10.60351562 C-1.15806161 6.88078859 -1.01551881 3.60167296 0 0 Z " fill="#EBE0E0" transform="translate(164,74)"/>
<path d="M0 0 C0.99 0 1.98 0 3 0 C3.66 1.98 4.32 3.96 5 6 C5.66 4.68 6.32 3.36 7 2 C8.20535714 10.03571429 8.20535714 10.03571429 7 14 C6.01441551 12.42065361 5.03677459 10.83634827 4.0625 9.25 C3.51722656 8.36828125 2.97195312 7.4865625 2.41015625 6.578125 C1.17284288 4.31600083 0.46409487 2.51433675 0 0 Z " fill="#E3D8DA" transform="translate(152,202)"/>
<path d="M0 0 C1.32 0.33 2.64 0.66 4 1 C4 1.99 4 2.98 4 4 C4.66 4 5.32 4 6 4 C6.33 3.34 6.66 2.68 7 2 C6.773125 2.763125 6.54625 3.52625 6.3125 4.3125 C6.209375 5.199375 6.10625 6.08625 6 7 C6.9793879 8.02019573 7.97895449 9.02149805 9 10 C8.6875 12.1875 8.6875 12.1875 8 14 C5.08975798 11.49941082 3.83208836 8.80344623 2.3125 5.3125 C1.87550781 4.31863281 1.43851563 3.32476562 0.98828125 2.30078125 C0.66214844 1.54152344 0.33601562 0.78226563 0 0 Z " fill="#674644" transform="translate(168,191)"/>
<path d="M0 0 C1.32 0.66 2.64 1.32 4 2 C2.75443908 2.81928886 1.50333365 3.63015186 0.25 4.4375 C-0.79414063 5.11619141 -0.79414063 5.11619141 -1.859375 5.80859375 C-5.98001724 8.10201689 -9.57644897 8.11329947 -14.25 8.0625 C-15.32765625 8.05347656 -16.4053125 8.04445313 -17.515625 8.03515625 C-18.33546875 8.02355469 -19.1553125 8.01195313 -20 8 C-20 7.67 -20 7.34 -20 7 C-15.05 6.67 -10.1 6.34 -5 6 C-4.67 5.01 -4.34 4.02 -4 3 C-1.9375 2.3125 -1.9375 2.3125 0 2 C0 1.34 0 0.68 0 0 Z " fill="#735956" transform="translate(226,109)"/>
<path d="M0 0 C4.71500935 4.71500935 5.162978 11.02291174 5.20654297 17.35107422 C5.17882688 20.56969413 5.10657671 23.78296228 5 27 C2.85046641 23.47546112 2.65227681 20.39325932 2.4375 16.3125 C2.56917186 12.33729387 2.56917186 12.33729387 1 9 C0.95919217 7.00041636 0.95745644 4.99954746 1 3 C0.34 2.67 -0.32 2.34 -1 2 C-0.67 1.34 -0.34 0.68 0 0 Z " fill="#D7C7C5" transform="translate(257,66)"/>
<path d="M0 0 C6.27 0 12.54 0 19 0 C18.67 0.66 18.34 1.32 18 2 C16.700625 1.979375 15.40125 1.95875 14.0625 1.9375 C12.70834367 1.91600546 11.35243917 1.92851801 10 2 C9.67 2.33 9.34 2.66 9 3 C6.125 3.25 6.125 3.25 3 3 C2.01 2.01 1.02 1.02 0 0 Z " fill="#603C3C" transform="translate(235,261)"/>
<path d="M0 0 C0.33 0 0.66 0 1 0 C1.22212255 2.74951693 1.42815588 5.49865612 1.625 8.25 C1.68945312 9.02730469 1.75390625 9.80460937 1.8203125 10.60546875 C2.30707097 17.72431144 2.30707097 17.72431144 0 21 C-1.32 20.67 -2.64 20.34 -4 20 C-3.525625 19.113125 -3.05125 18.22625 -2.5625 17.3125 C-0.1668051 11.84308334 -0.25661017 5.88433663 0 0 Z M3 14 C3.33 14.66 3.66 15.32 4 16 C3.34 15.67 2.68 15.34 2 15 C2.33 14.67 2.66 14.34 3 14 Z " fill="#DCD5D3" transform="translate(242,82)"/>
<path d="M0 0 C4.13621084 3.3810038 7.81316569 6.66590534 11 11 C10.34 11.66 9.68 12.32 9 13 C8.34 12.01 7.68 11.02 7 10 C6.01 10.33 5.02 10.66 4 11 C2.37680524 7.33016838 0.8930575 3.91904847 0 0 Z " fill="#634144" transform="translate(118,90)"/>
<path d="M0 0 C0.33 0 0.66 0 1 0 C1.268125 0.9075 1.53625 1.815 1.8125 2.75 C2.89576294 5.71471963 3.98359457 7.6169754 6 10 C5.34 10.66 4.68 11.32 4 12 C0.37 8.7 -3.26 5.4 -7 2 C-4.66666667 2 -2.33333333 2 0 2 C0 1.34 0 0.68 0 0 Z " fill="#DAD4D4" transform="translate(119,83)"/>
<path d="M0 0 C3.83663072 1.34929464 6.65172569 3.07751025 9.8125 5.625 C10.99779297 6.57246094 10.99779297 6.57246094 12.20703125 7.5390625 C12.79871094 8.02117187 13.39039062 8.50328125 14 9 C11 10 11 10 9.0625 9.109375 C8.381875 8.66078125 7.70125 8.2121875 7 7.75 C5.9790625 7.09257813 5.9790625 7.09257813 4.9375 6.421875 C3.0820007 5.06017793 1.50085216 3.74474064 0 2 C0 1.34 0 0.68 0 0 Z " fill="#EDE6E7" transform="translate(112,62)"/>
<path d="M0 0 C2.475 0.495 2.475 0.495 5 1 C5 1.66 5 2.32 5 3 C5.66 3 6.32 3 7 3 C8.06775224 4.96466413 9.06553465 6.96855359 10 9 C9.67 9.66 9.34 10.32 9 11 C9.66 11.33 10.32 11.66 11 12 C10.34 12.66 9.68 13.32 9 14 C8.51789063 13.24074219 8.03578125 12.48148438 7.5390625 11.69921875 C6.90742188 10.70535156 6.27578125 9.71148437 5.625 8.6875 C4.99851563 7.70136719 4.37203125 6.71523437 3.7265625 5.69921875 C2.50348387 3.78712071 1.2590644 1.8885966 0 0 Z " fill="#ECE4E7" transform="translate(125,96)"/>
<path d="M0 0 C0.2475 0.61875 0.495 1.2375 0.75 1.875 C2.20628639 4.35068687 3.37812506 4.95125002 6 6 C6 7.65 6 9.3 6 11 C7.32 11.66 8.64 12.32 10 13 C10 13.66 10 14.32 10 15 C10.66 15 11.32 15 12 15 C11.67 15.66 11.34 16.32 11 17 C5.95250132 13.15982809 1.4507885 8.98656149 -1 3 C-0.67 2.01 -0.34 1.02 0 0 Z " fill="#6C4E4E" transform="translate(104,196)"/>
<path d="M0 0 C2.10633718 1.70828921 2.93801608 2.52148416 3.29296875 5.26171875 C3.25816406 6.06222656 3.22335938 6.86273438 3.1875 7.6875 C3.16042969 8.49574219 3.13335937 9.30398437 3.10546875 10.13671875 C3.07066406 10.75160156 3.03585938 11.36648437 3 12 C1.23537317 8.91190305 1 7.76687864 1 4 C-2.63 4 -6.26 4 -10 4 C-9.67 3.34 -9.34 2.68 -9 2 C-6.03 2 -3.06 2 0 2 C0 1.34 0 0.68 0 0 Z " fill="#715654" transform="translate(97,178)"/>
<path d="M0 0 C3.14703761 1.57351881 3.7416747 4.30201662 5.1875 7.4375 C5.73792969 8.61183594 6.28835937 9.78617187 6.85546875 10.99609375 C7.23316406 11.98738281 7.61085938 12.97867187 8 14 C7.67 14.66 7.34 15.32 7 16 C2.48640242 12.4536019 0.53397394 7.40184689 -1 2 C-0.67 1.34 -0.34 0.68 0 0 Z " fill="#6B5152" transform="translate(78,252)"/>
<path d="M0 0 C2.97 0.495 2.97 0.495 6 1 C3.33333333 5 0.66666667 9 -2 13 C-2.33 11.35 -2.66 9.7 -3 8 C-2.34 8 -1.68 8 -1 8 C-1.020625 7.05125 -1.04125 6.1025 -1.0625 5.125 C-1 2 -1 2 0 0 Z " fill="#E8E7E3" transform="translate(185,64)"/>
<path d="M0 0 C2.87557703 -0.08138426 5.74882262 -0.14067851 8.625 -0.1875 C9.43324219 -0.21263672 10.24148437 -0.23777344 11.07421875 -0.26367188 C16.17689316 -0.32589961 19.53139688 0.24508449 24 3 C24 3.66 24 4.32 24 5 C23.05253906 4.67515625 23.05253906 4.67515625 22.0859375 4.34375 C14.28739514 1.91653797 7.12704852 1.67966378 -1 2 C-0.67 1.34 -0.34 0.68 0 0 Z " fill="#CFBDC0" transform="translate(205,56)"/>
<path d="M0 0 C0.66 0.33 1.32 0.66 2 1 C1.34 2.98 0.68 4.96 0 7 C-0.99 7 -1.98 7 -3 7 C-4.68798827 8.43750191 -4.68798827 8.43750191 -6 10 C-6.33 9.34 -6.66 8.68 -7 8 C-4.54385965 3 -4.54385965 3 -3 1 C-2.01 0.67 -1.02 0.34 0 0 Z " fill="#E3E1E1" transform="translate(174,57)"/>
<path d="M0 0 C1.75 0.875 1.75 0.875 4.75 2.875 C2.98413239 3.4326424 1.21204744 3.97062787 -0.5625 4.5 C-1.54863281 4.80164062 -2.53476563 5.10328125 -3.55078125 5.4140625 C-6.25 5.875 -6.25 5.875 -9.25 3.875 C-2.89086687 -0.16060372 -2.89086687 -0.16060372 0 0 Z " fill="#E4E0DF" transform="translate(195.25,40.125)"/>
<path d="M0 0 C1.8125 0.125 1.8125 0.125 4 1 C5.0650015 2.96615661 6.06833174 4.96726926 7 7 C7.66 7.33 8.32 7.66 9 8 C9 8.99 9 9.98 9 11 C9.66 11 10.32 11 11 11 C10.67 11.99 10.34 12.98 10 14 C8.69979989 12.61211198 7.4101807 11.21430742 6.125 9.8125 C5.40570313 9.03519531 4.68640625 8.25789062 3.9453125 7.45703125 C2.0182908 5.02310224 0.98699889 2.92463354 0 0 Z " fill="#E8DCDD" transform="translate(160,216)"/>
<path d="M0 0 C-0.33 1.98 -0.66 3.96 -1 6 C-1.99 6.33 -2.98 6.66 -4 7 C-4 6.01 -4 5.02 -4 4 C-5.98 5.98 -7.96 7.96 -10 10 C-10.66 9.67 -11.32 9.34 -12 9 C-10.57189185 7.49105554 -9.13218981 5.99307655 -7.6875 4.5 C-6.88699219 3.6646875 -6.08648437 2.829375 -5.26171875 1.96875 C-3 0 -3 0 0 0 Z " fill="#745755" transform="translate(254,117)"/>
<path d="M0 0 C0.99 1.32 1.98 2.64 3 4 C2.28865423 7.24057516 1.401317 8.6577002 -1.125 10.8125 C-1.74375 11.204375 -2.3625 11.59625 -3 12 C-3.66 11.67 -4.32 11.34 -5 11 C-3.35 7.37 -1.7 3.74 0 0 Z " fill="#6D4B48" transform="translate(259,102)"/>
<path d="M0 0 C0.66 0 1.32 0 2 0 C1.34 7.92 0.68 15.84 0 24 C-0.33 24 -0.66 24 -1 24 C-1.22366479 21.31300008 -1.42927009 18.62656203 -1.625 15.9375 C-1.68945312 15.18533203 -1.75390625 14.43316406 -1.8203125 13.65820312 C-2.17033804 8.60470937 -1.66655961 4.78976864 0 0 Z " fill="#6E5452" transform="translate(163,70)"/>
<path d="M0 0 C0.66 0.33 1.32 0.66 2 1 C1.6875 2.9375 1.6875 2.9375 1 5 C0.01 5.33 -0.98 5.66 -2 6 C-2.33 7.65 -2.66 9.3 -3 11 C-3.99 9.68 -4.98 8.36 -6 7 C-4.02 4.69 -2.04 2.38 0 0 Z " fill="#6C4F4B" transform="translate(113,244)"/>
<path d="M0 0 C0 0.99 0 1.98 0 3 C-0.60328125 3.04898438 -1.2065625 3.09796875 -1.828125 3.1484375 C-3.02695313 3.26058594 -3.02695313 3.26058594 -4.25 3.375 C-5.43335938 3.47941406 -5.43335938 3.47941406 -6.640625 3.5859375 C-9.09580281 4.01681308 -10.8010595 4.86388074 -13 6 C-15.75 6.125 -15.75 6.125 -18 6 C-13.31096237 1.71870477 -6.32000725 -0.6116136 0 0 Z " fill="#6F5251" transform="translate(138,234)"/>
<path d="M0 0 C3.96 0 7.92 0 12 0 C11.67 1.65 11.34 3.3 11 5 C10.67 3.68 10.34 2.36 10 1 C7.69 1.33 5.38 1.66 3 2 C2.71125 2.94875 2.4225 3.8975 2.125 4.875 C1 8 1 8 -1 10 C-0.67 6.7 -0.34 3.4 0 0 Z " fill="#E5D8D9" transform="translate(86,182)"/>
<path d="M0 0 C0.65355469 0.16371094 1.30710938 0.32742187 1.98046875 0.49609375 C5.76991774 1.12848563 9.48490951 1.10696709 13.3125 1.0625 C14.42334961 1.05573242 14.42334961 1.05573242 15.55664062 1.04882812 C17.37112899 1.03712175 19.18557534 1.01918898 21 1 C21 1.66 21 2.32 21 3 C17.70926338 3.22531972 14.41750581 3.42735982 11.125 3.625 C9.71927734 3.72167969 9.71927734 3.72167969 8.28515625 3.8203125 C6.94130859 3.89765625 6.94130859 3.89765625 5.5703125 3.9765625 C4.74289551 4.02893066 3.91547852 4.08129883 3.06298828 4.13525391 C1 4 1 4 -1 2 C-0.67 1.34 -0.34 0.68 0 0 Z " fill="#EDE8E4" transform="translate(201,115)"/>
<path d="M0 0 C3.40198926 4.04998722 6 8.63626649 6 14 C5.34 14 4.68 14 4 14 C4 13.01 4 12.02 4 11 C3.01 11.33 2.02 11.66 1 12 C1.020625 11.195625 1.04125 10.39125 1.0625 9.5625 C1.29633621 7.06645115 1.29633621 7.06645115 0 6 C-0.04080783 4.00041636 -0.04254356 1.99954746 0 0 Z " fill="#E1D5D7" transform="translate(152,103)"/>
<path d="M0 0 C1.125 1.5625 1.125 1.5625 2 4 C1.3125 7.625 1.3125 7.625 0 11 C-0.99 11.66 -1.98 12.32 -3 13 C-3.66 12.67 -4.32 12.34 -5 12 C-3.41037341 7.96479403 -1.71767682 3.98188718 0 0 Z " fill="#DCD7D7" transform="translate(84,192)"/>
<path d="M0 0 C1.50560497 2.85410334 2.63216796 5.68124642 3.625 8.75 C3.88539062 9.54921875 4.14578125 10.3484375 4.4140625 11.171875 C4.60742188 11.77515625 4.80078125 12.3784375 5 13 C4.01 13.33 3.02 13.66 2 14 C0.4375 12.1875 0.4375 12.1875 -1 10 C-0.67 9.01 -0.34 8.02 0 7 C0.03954234 4.66700175 0.04401732 2.33291811 0 0 Z " fill="#E7DEE0" transform="translate(98,186)"/>
<path d="M0 0 C0.33 0 0.66 0 1 0 C1.103125 1.010625 1.20625 2.02125 1.3125 3.0625 C1.84946682 7.03632901 1.84946682 7.03632901 3.5625 10.625 C4.91694207 13.80499441 5.30764468 15.61590848 5 19 C4.34 18.67 3.68 18.34 3 18 C2.1693499 15.34955108 1.45778594 12.75779182 0.8125 10.0625 C0.62236328 9.32064453 0.43222656 8.57878906 0.23632812 7.81445312 C-1.12890388 2.25780775 -1.12890388 2.25780775 0 0 Z " fill="#E6DDDF" transform="translate(147,182)"/>
<path d="M0 0 C0.99 0.33 1.98 0.66 3 1 C1.88059018 5.85077588 0.8665284 8.777893 -3 12 C-4.5 10.625 -4.5 10.625 -6 9 C-6 8.34 -6 7.68 -6 7 C-4.02 7 -2.04 7 0 7 C0 4.69 0 2.38 0 0 Z " fill="#E7E5E2" transform="translate(255,104)"/>
<path d="M0 0 C1.34173403 0.92543709 2.67320159 1.86577405 4 2.8125 C5.11375 3.59560547 5.11375 3.59560547 6.25 4.39453125 C6.8275 4.92433594 7.405 5.45414063 8 6 C8 6.99 8 7.98 8 9 C7.01 9 6.02 9 5 9 C5 8.34 5 7.68 5 7 C4.01 7 3.02 7 2 7 C2 6.34 2 5.68 2 5 C1.34 5 0.68 5 0 5 C0 4.34 0 3.68 0 3 C-0.66 2.67 -1.32 2.34 -2 2 C-1.34 2 -0.68 2 0 2 C0 1.34 0 0.68 0 0 Z " fill="#684749" transform="translate(59,153)"/>
<path d="M0 0 C2.9244745 2.63202705 5.02154932 5.60837026 7 9 C6.67 9.99 6.34 10.98 6 12 C5.67 11.34 5.34 10.68 5 10 C3.68 10 2.36 10 1 10 C0.4375 8.0625 0.4375 8.0625 0 6 C0.33 5.67 0.66 5.34 1 5 C0.71395102 3.32457024 0.38218767 1.65614657 0 0 Z " fill="#E7DCDF" transform="translate(144,90)"/>
<path d="M0 0 C1.88343932 3.76687864 2.22057835 5.02958963 2 9 C2.969375 9.12375 3.93875 9.2475 4.9375 9.375 C5.948125 9.58125 6.95875 9.7875 8 10 C8.33 10.66 8.66 11.32 9 12 C6.03 11.67 3.06 11.34 0 11 C0 7.37 0 3.74 0 0 Z " fill="#DFCDD0" transform="translate(46,223)"/>
<path d="M0 0 C0.598125 0.309375 1.19625 0.61875 1.8125 0.9375 C4.08956772 2.10209704 4.08956772 2.10209704 7 3 C7.5625 4.8125 7.5625 4.8125 8 7 C8.63654342 8.3479743 9.29605388 9.68596724 10 11 C9.34 11.66 8.68 12.32 8 13 C6.66388095 11.0226631 5.33100742 9.04327287 4 7.0625 C3.6184375 6.49853516 3.236875 5.93457031 2.84375 5.35351562 C0 1.11328125 0 1.11328125 0 0 Z " fill="#6C4B4E" transform="translate(142,86)"/>
<path d="M0 0 C3.39417765 3.12621626 5.6062718 5.56541027 7 10 C6.01 10 5.02 10 4 10 C1.25 7.25 1.25 7.25 -1 4 C-0.8125 1.625 -0.8125 1.625 0 0 Z " fill="#6E5355" transform="translate(233,65)"/>
<path d="M0 0 C0 0.33 0 0.66 0 1 C-0.71027344 1.06058594 -1.42054688 1.12117188 -2.15234375 1.18359375 C-3.07144531 1.26738281 -3.99054688 1.35117187 -4.9375 1.4375 C-5.85402344 1.51871094 -6.77054688 1.59992187 -7.71484375 1.68359375 C-9.96159732 1.76044976 -9.96159732 1.76044976 -11 3 C-12.51469448 3.23192865 -14.03754562 3.41215238 -15.5625 3.5625 C-16.80193359 3.68818359 -16.80193359 3.68818359 -18.06640625 3.81640625 C-19.02353516 3.90728516 -19.02353516 3.90728516 -20 4 C-20 3.34 -20 2.68 -20 2 C-13.38190423 -0.46254726 -6.99560484 -0.18935472 0 0 Z " fill="#E1D2D3" transform="translate(218,37)"/>
<path d="M0 0 C1.50560497 2.85410334 2.63216796 5.68124642 3.625 8.75 C3.88539063 9.54921875 4.14578125 10.3484375 4.4140625 11.171875 C4.60742188 11.77515625 4.80078125 12.3784375 5 13 C4.01 13.66 3.02 14.32 2 15 C-0.10428384 9.87080814 -0.21755666 5.4389165 0 0 Z " fill="#6C5151" transform="translate(147,190)"/>
<path d="M0 0 C-2.50769825 2.50769825 -4.62236721 2.96072837 -8 4 C-9.11375 4.37125 -10.2275 4.7425 -11.375 5.125 C-12.24125 5.41375 -13.1075 5.7025 -14 6 C-14 4.68 -14 3.36 -14 2 C-11.525 2.495 -11.525 2.495 -9 3 C-9 2.34 -9 1.68 -9 1 C-6.04335481 -0.4783226 -3.25770263 -0.06032783 0 0 Z " fill="#705355" transform="translate(200,38)"/>
<path d="M0 0 C2 2 2 2 2.125 5.625 C2.08375 6.73875 2.0425 7.8525 2 9 C7.1693489 8.59443869 7.1693489 8.59443869 12 7 C12 7.99 12 8.98 12 10 C8.37 10 4.74 10 1 10 C-0.66015625 3.06640625 -0.66015625 3.06640625 -1 1 C-0.67 0.67 -0.34 0.34 0 0 Z " fill="#ECE8E7" transform="translate(86,263)"/>
<path d="M0 0 C2.55934601 1.279673 2.6989233 2.24201036 3.6875 4.875 C3.95949219 5.57367188 4.23148438 6.27234375 4.51171875 6.9921875 C5 9 5 9 4 12 C2.02 9.36 0.04 6.72 -2 4 C-1.34 2.68 -0.68 1.36 0 0 Z " fill="#E8E0E4" transform="translate(171,108)"/>
<path d="M0 0 C1.32 0.66 2.64 1.32 4 2 C1.36 4.31 -1.28 6.62 -4 9 C-4.66 8.01 -5.32 7.02 -6 6 C-5.34 6 -4.68 6 -4 6 C-3.34 4.68 -2.68 3.36 -2 2 C-1.34 2 -0.68 2 0 2 C0 1.34 0 0.68 0 0 Z " fill="#6A494A" transform="translate(179,45)"/>
<path d="M0 0 C0.95892499 2.58909747 1.0552238 3.81592068 0.25 6.5 C-0.95767886 8.91535773 -2.29751274 10.91058382 -4 13 C-5.40318642 8.79044073 -3.88224523 6.90391604 -2 3 C-1.34 2.01 -0.68 1.02 0 0 Z " fill="#6D4C4B" transform="translate(106,252)"/>
<path d="M0 0 C3.81684226 1.55500981 6.19195732 4.03595495 9 7 C7.68 7.33 6.36 7.66 5 8 C5 7.34 5 6.68 5 6 C2.525 5.01 2.525 5.01 0 4 C0 2.68 0 1.36 0 0 Z " fill="#6B4C4C" transform="translate(174,235)"/>
<path d="M0 0 C4.455 1.98 4.455 1.98 9 4 C8.01 4.495 8.01 4.495 7 5 C7 5.66 7 6.32 7 7 C4.03 6.505 4.03 6.505 1 6 C0.67 4.02 0.34 2.04 0 0 Z " fill="#E7E8E4" transform="translate(119,216)"/>
<path d="M0 0 C1.32 0.33 2.64 0.66 4 1 C4 1.99 4 2.98 4 4 C6.31 4.33 8.62 4.66 11 5 C11 5.33 11 5.66 11 6 C7.7 6.66 4.4 7.32 1 8 C0.67 5.36 0.34 2.72 0 0 Z " fill="#754C4D" transform="translate(42,216)"/>
<path d="M0 0 C3.3 0.99 6.6 1.98 10 3 C8.68 3.33 7.36 3.66 6 4 C6 4.66 6 5.32 6 6 C3.13275314 5.42655063 2.1385485 5.1385485 0 3 C0 2.01 0 1.02 0 0 Z " fill="#624345" transform="translate(68,161)"/>
<path d="M0 0 C5.63689034 1.32632714 7.93185683 5.46631765 11 10 C9.0625 9.1875 9.0625 9.1875 7 8 C6.67 7.01 6.34 6.02 6 5 C5.01 5.33 4.02 5.66 3 6 C3 5.34 3 4.68 3 4 C2.34 4 1.68 4 1 4 C0.67 2.68 0.34 1.36 0 0 Z " fill="#E3D6D3" transform="translate(240,152)"/>
<path d="M0 0 C1.65 1.65 3.3 3.3 5 5 C4.01 5.495 4.01 5.495 3 6 C3 6.99 3 7.98 3 9 C2.01 9.33 1.02 9.66 0 10 C-1.231394 6.30581799 -0.64432764 3.7943739 0 0 Z " fill="#E5E0E0" transform="translate(249,54)"/>
<path d="M0 0 C0.66 0.33 1.32 0.66 2 1 C2 1.66 2 2.32 2 3 C0.52304509 4.28430862 -0.95806138 5.56580708 -2.4921875 6.78125 C-4.13813095 8.06784671 -4.13813095 8.06784671 -6 10 C-6.99 9.67 -7.98 9.34 -9 9 C-8.01 8.67 -7.02 8.34 -6 8 C-5.31513275 6.67592331 -4.65129797 5.34090759 -4 4 C-2.70529025 2.62913085 -1.37849103 1.28659163 0 0 Z " fill="#D1CECD" transform="translate(78,204)"/>
<path d="M0 0 C5.75 1.75 5.75 1.75 8 4 C5.09399739 5.25664978 3.20395416 6 0 6 C0 4.02 0 2.04 0 0 Z " fill="#EEE8E6" transform="translate(232,42)"/>
<path d="M0 0 C1.98 0 3.96 0 6 0 C3.42215154 2.64752004 1.08351902 4.94432065 -2 7 C-2.33 5.68 -2.66 4.36 -3 3 C-2.34 3 -1.68 3 -1 3 C-0.67 2.01 -0.34 1.02 0 0 Z " fill="#E4E2DF" transform="translate(112,240)"/>
<path d="M0 0 C-1.59910868 1.00806851 -3.20448262 2.00620385 -4.8125 3 C-6.15248047 3.8353125 -6.15248047 3.8353125 -7.51953125 4.6875 C-10 6 -10 6 -13 6 C-13 5.34 -13 4.68 -13 4 C-13.66 3.67 -14.32 3.34 -15 3 C-12.69 3 -10.38 3 -8 3 C-8 2.34 -8 1.68 -8 1 C-2.25 -1.125 -2.25 -1.125 0 0 Z " fill="#DFD3D2" transform="translate(242,127)"/>
<path d="M0 0 C0.33 1.32 0.66 2.64 1 4 C-0.32 4.33 -1.64 4.66 -3 5 C-1.68 5 -0.36 5 1 5 C1 5.66 1 6.32 1 7 C0.01 7.33 -0.98 7.66 -2 8 C-2.66 8.66 -3.32 9.32 -4 10 C-4.66 8.35 -5.32 6.7 -6 5 C-4.02 3.35 -2.04 1.7 0 0 Z " fill="#6A4944" transform="translate(196,61)"/>
<path d="M0 0 C-7.5 5 -7.5 5 -10 5 C-10.33 4.01 -10.66 3.02 -11 2 C-7.374967 -1.625033 -4.81746234 -1.01907857 0 0 Z " fill="#EDDFDE" transform="translate(204,57)"/>
<path d="M0 0 C4.455 2.97 4.455 2.97 9 6 C6 8 6 8 3.375 7.5 C1 6 1 6 0.1875 2.875 C0.125625 1.92625 0.06375 0.9775 0 0 Z " fill="#E1D8D9" transform="translate(191,108)"/>
<path d="M0 0 C-1.44077046 3.36179774 -3.24750021 5.59156268 -6 8 C-6.66 8 -7.32 8 -8 8 C-7.65978036 4.82461668 -6.97533396 3.97723135 -4.5625 1.75 C-2 0 -2 0 0 0 Z " fill="#6D5152" transform="translate(238,102)"/>
<path d="M0 0 C0.66 0.33 1.32 0.66 2 1 C-1.625 6.75 -1.625 6.75 -5 9 C-4.5206753 4.68607774 -3.2542015 2.83430453 0 0 Z " fill="#664648" transform="translate(79,199)"/>
<path d="M0 0 C0.33 0 0.66 0 1 0 C1.06058594 0.66386719 1.12117187 1.32773438 1.18359375 2.01171875 C1.79863507 8.54908081 1.79863507 8.54908081 3 15 C2.01 14.67 1.02 14.34 0 14 C-1.39151652 9.20699867 -0.68662689 4.84864218 0 0 Z " fill="#664444" transform="translate(161,84)"/>
<path d="M0 0 C2.66666667 2.66666667 5.33333333 5.33333333 8 8 C7.67 8.66 7.34 9.32 7 10 C4.5 8.625 4.5 8.625 2 7 C2 6.34 2 5.68 2 5 C1.34 5 0.68 5 0 5 C0 3.35 0 1.7 0 0 Z " fill="#E0D5D5" transform="translate(136,80)"/>
<path d="M0 0 C2.475 0.495 2.475 0.495 5 1 C5 1.66 5 2.32 5 3 C5.9590625 3.1546875 5.9590625 3.1546875 6.9375 3.3125 C7.618125 3.539375 8.29875 3.76625 9 4 C9.33 4.99 9.66 5.98 10 7 C9.34 7.66 8.68 8.32 8 9 C7.236875 8.071875 6.47375 7.14375 5.6875 6.1875 C3.88151448 4.01723899 2.0523371 1.94431935 0 0 Z " fill="#E0E0DD" transform="translate(229,61)"/>
<path d="M0 0 C0.99 0.33 1.98 0.66 3 1 C0.69 4.3 -1.62 7.6 -4 11 C-4.66 10.34 -5.32 9.68 -6 9 C-4.7260411 6.96166576 -3.38938077 4.96147874 -2 3 C-1.34 3 -0.68 3 0 3 C0 2.01 0 1.02 0 0 Z " fill="#E9DCDB" transform="translate(107,247)"/>
<path d="M0 0 C2.52349243 3.12432397 4.27256146 6.38060496 6 10 C4.35 9.67 2.7 9.34 1 9 C0.67 6.03 0.34 3.06 0 0 Z " fill="#DCD3D0" transform="translate(171,198)"/>
<path d="M0 0 C2.64 0.99 5.28 1.98 8 3 C8 3.66 8 4.32 8 5 C5.36 4.67 2.72 4.34 0 4 C0 2.68 0 1.36 0 0 Z " fill="#624141" transform="translate(92,74)"/>
<path d="M0 0 C2.64 0.99 5.28 1.98 8 3 C7.01 3.66 6.02 4.32 5 5 C1.3125 4.125 1.3125 4.125 -2 3 C-1.34 2.67 -0.68 2.34 0 2 C0 1.34 0 0.68 0 0 Z " fill="#604245" transform="translate(56,236)"/>
<path d="M0 0 C0.33 0 0.66 0 1 0 C3.27678571 8.03571429 3.27678571 8.03571429 2 12 C0.48046875 10.79296875 0.48046875 10.79296875 -1 9 C-1.07421875 6.73828125 -1.07421875 6.73828125 -0.6875 4.3125 C-0.56761719 3.50425781 -0.44773438 2.69601563 -0.32421875 1.86328125 C-0.21722656 1.24839844 -0.11023438 0.63351563 0 0 Z " fill="#674D4E" transform="translate(144,178)"/>
<path d="M0 0 C0.99 0.33 1.98 0.66 3 1 C3.99 0.67 4.98 0.34 6 0 C6.33 2.31 6.66 4.62 7 7 C4.36 5.35 1.72 3.7 -1 2 C-0.67 1.34 -0.34 0.68 0 0 Z " fill="#E4DADA" transform="translate(226,163)"/>
<path d="M0 0 C0.66 0 1.32 0 2 0 C4 3 4 3 3.625 5.1875 C3.41875 5.785625 3.2125 6.38375 3 7 C1.35 5.35 -0.3 3.7 -2 2 C-1.34 1.34 -0.68 0.68 0 0 Z " fill="#E0DAD8" transform="translate(173,229)"/>
<path d="M0 0 C1.32 0.33 2.64 0.66 4 1 C4.33 2.65 4.66 4.3 5 6 C3.35 5.67 1.7 5.34 0 5 C0 3.35 0 1.7 0 0 Z " fill="#705054" transform="translate(51,144)"/>
<path d="M0 0 C2.64 0.33 5.28 0.66 8 1 C8.66 2.65 9.32 4.3 10 6 C6.00499382 4.6302836 3.19990508 2.74277578 0 0 Z " fill="#D1CBC9" transform="translate(102,78)"/>
<path d="M0 0 C2.31 0.66 4.62 1.32 7 2 C7 3.32 7 4.64 7 6 C3.63279613 4.60667426 2.0140476 3.0210714 0 0 Z " fill="#775958" transform="translate(128,72)"/>
<path d="M0 0 C1.32 0.33 2.64 0.66 4 1 C4.66 3.97 5.32 6.94 6 10 C3.25722422 6.80009492 1.3697164 3.99500618 0 0 Z " fill="#624440" transform="translate(256,63)"/>
<path d="M0 0 C1.98 0 3.96 0 6 0 C6.33 0.99 6.66 1.98 7 3 C7.66 3.66 8.32 4.32 9 5 C5 5 5 5 2.25 2.5 C1.5075 1.675 0.765 0.85 0 0 Z " fill="#7D5D5E" transform="translate(120,66)"/>
<path d="M0 0 C1.16959987 0.97566112 2.33561177 1.955625 3.5 2.9375 C4.1496875 3.48277344 4.799375 4.02804688 5.46875 4.58984375 C5.9740625 5.05519531 6.479375 5.52054688 7 6 C7 6.33 7 6.66 7 7 C5.02 7 3.04 7 1 7 C0.67 4.69 0.34 2.38 0 0 Z " fill="#E0D4D3" transform="translate(110,208)"/>
<path d="M0 0 C3.53586014 3.17320782 5.58578031 5.16743695 6 10 C4 9 4 9 3 6 C1.00334686 4.31461399 1.00334686 4.31461399 -1 3 C-0.67 2.01 -0.34 1.02 0 0 Z " fill="#5B393B" transform="translate(125,99)"/>
<path d="M0 0 C3.36591866 1.44253657 5.51047079 3.33264727 8 6 C7.67 6.66 7.34 7.32 7 8 C6.34 8 5.68 8 5 8 C5 7.01 5 6.02 5 5 C4.360625 4.731875 3.72125 4.46375 3.0625 4.1875 C1 3 1 3 0 0 Z " fill="#684447" transform="translate(110,84)"/>
<path d="M0 0 C2.31 1.65 4.62 3.3 7 5 C3 6 3 6 0.75 5.0625 C0.1725 4.711875 -0.405 4.36125 -1 4 C-0.67 2.68 -0.34 1.36 0 0 Z " fill="#E7E3E3" transform="translate(129,74)"/>
<path d="M0 0 C2.25 -0.3125 2.25 -0.3125 5 0 C7.3125 2.5 7.3125 2.5 9 5 C4.98525763 5 3.18024863 3.33218233 0 1 C0 0.67 0 0.34 0 0 Z " fill="#D7C8C8" transform="translate(186,243)"/>
<path d="M0 0 C3.39914975 1.13304992 4.05254451 2.12518475 6 5 C5.67 5.66 5.34 6.32 5 7 C3.0625 6.3125 3.0625 6.3125 1 5 C0.25 2.375 0.25 2.375 0 0 Z " fill="#E3DAD4" transform="translate(192,224)"/>
<path d="M0 0 C2.40201504 4.19879794 2.15864149 7.24075541 2 12 C0.48046875 10.79296875 0.48046875 10.79296875 -1 9 C-1.07421875 6.73828125 -1.07421875 6.73828125 -0.6875 4.3125 C-0.56761719 3.50425781 -0.44773438 2.69601563 -0.32421875 1.86328125 C-0.21722656 1.24839844 -0.11023438 0.63351563 0 0 Z " fill="#EDE6E7" transform="translate(158,204)"/>
<path d="M0 0 C0.66 0.33 1.32 0.66 2 1 C2.40729228 3.32156597 2.74438677 5.6568787 3 8 C1.68 8 0.36 8 -1 8 C-0.67 5.36 -0.34 2.72 0 0 Z " fill="#674949" transform="translate(139,124)"/>
<path d="M0 0 C0.33 1.98 0.66 3.96 1 6 C-0.875 5.75 -0.875 5.75 -3 5 C-4.25 2.9375 -4.25 2.9375 -5 1 C-2 0 -2 0 0 0 Z " fill="#E3DBDA" transform="translate(101,72)"/>
<path d="M0 0 C4.29 0.33 8.58 0.66 13 1 C13.33 1.99 13.66 2.98 14 4 C9.38 3.01 4.76 2.02 0 1 C0 0.67 0 0.34 0 0 Z " fill="#7A5F60" transform="translate(218,37)"/>
<path d="M0 0 C2.64 0.99 5.28 1.98 8 3 C8 3.33 8 3.66 8 4 C5.36 4 2.72 4 0 4 C-0.33 3.01 -0.66 2.02 -1 1 C-0.67 0.67 -0.34 0.34 0 0 Z " fill="#604144" transform="translate(200,252)"/>
<path d="M0 0 C0.66 0.33 1.32 0.66 2 1 C2 1.99 2 2.98 2 4 C-2.455 4.495 -2.455 4.495 -7 5 C-4.702779 3.25728062 -2.40133271 1.60088848 0 0 Z " fill="#D4C9C8" transform="translate(67,214)"/>
<path d="M0 0 C1.32 0.66 2.64 1.32 4 2 C4 2.66 4 3.32 4 4 C4.66 4.33 5.32 4.66 6 5 C4.35 5 2.7 5 1 5 C0.34 3.68 -0.32 2.36 -1 1 C-0.67 0.67 -0.34 0.34 0 0 Z " fill="#E5D7DA" transform="translate(61,152)"/>
<path d="M0 0 C2.97 0.495 2.97 0.495 6 1 C6.33 1.99 6.66 2.98 7 4 C5.02 4 3.04 4 1 4 C0.67 2.68 0.34 1.36 0 0 Z " fill="#715454" transform="translate(191,132)"/>
<path d="M0 0 C2.56616632 3.84924948 2.55097676 6.4349304 3 11 C2.01 11 1.02 11 0 11 C0 7.37 0 3.74 0 0 Z " fill="#D4C9CB" transform="translate(158,117)"/>
<path d="M0 0 C2.62187494 1.04874998 3.79371361 1.64931313 5.25 4.125 C5.4975 4.74375 5.745 5.3625 6 6 C5.01 6.495 5.01 6.495 4 7 C3.34 6.01 2.68 5.02 2 4 C1.01 4.33 0.02 4.66 -1 5 C-0.67 3.35 -0.34 1.7 0 0 Z " fill="#6A4E52" transform="translate(123,96)"/>
<path d="M0 0 C0.99 0.33 1.98 0.66 3 1 C1.84826645 3.46800047 0.95216435 5.04783565 -1 7 C-1.625 4.625 -1.625 4.625 -2 2 C-1.34 1.34 -0.68 0.68 0 0 Z " fill="#6D484A" transform="translate(171,53)"/>
<path d="M0 0 C1.32 0 2.64 0 4 0 C4.99 1.98 5.98 3.96 7 6 C6.34 6.66 5.68 7.32 5 8 C2.525 4.04 2.525 4.04 0 0 Z " fill="#694A47" transform="translate(250,54)"/>
<path d="M0 0 C2.475 0.99 2.475 0.99 5 2 C5 2.99 5 3.98 5 5 C3.35 5 1.7 5 0 5 C0 3.35 0 1.7 0 0 Z " fill="#694449" transform="translate(64,240)"/>
<path d="M0 0 C0.33 0.66 0.66 1.32 1 2 C1.66 2 2.32 2 3 2 C3 3.98 3 5.96 3 8 C2.01 8.495 2.01 8.495 1 9 C0.67 6.03 0.34 3.06 0 0 Z " fill="#694D4F" transform="translate(161,125)"/>
<path d="M0 0 C3.96 1.98 3.96 1.98 8 4 C7.34 4.66 6.68 5.32 6 6 C3.00306862 5.00102287 1.97290587 4.34869747 0 2 C0 1.34 0 0.68 0 0 Z " fill="#634544" transform="translate(101,78)"/>
<path d="M0 0 C2.97 0.33 5.94 0.66 9 1 C9 1.66 9 2.32 9 3 C7.68 3.33 6.36 3.66 5 4 C5 3.34 5 2.68 5 2 C3.35 1.67 1.7 1.34 0 1 C0 0.67 0 0.34 0 0 Z " fill="#674747" transform="translate(79,71)"/>
<path d="M0 0 C2.32472205 2.85306797 3.7508258 5.54074837 5 9 C2 8 2 8 0.8125 6.1875 C0 4 0 4 0 0 Z " fill="#6E5151" transform="translate(153,206)"/>
<path d="M0 0 C0.66 0.66 1.32 1.32 2 2 C1.625 4.625 1.625 4.625 1 7 C0.34 7 -0.32 7 -1 7 C-1.33 5.02 -1.66 3.04 -2 1 C-1.34 0.67 -0.68 0.34 0 0 Z " fill="#6F3E44" transform="translate(83,187)"/>
<path d="M0 0 C2 3 2 3 1.625 6.1875 C1.41875 7.115625 1.2125 8.04375 1 9 C-1.14809171 5.77786243 -1.29386153 4.72224599 -1 1 C-0.67 0.67 -0.34 0.34 0 0 Z " fill="#694848" transform="translate(165,173)"/>
<path d="M0 0 C1.32 0.33 2.64 0.66 4 1 C3.67 2.65 3.34 4.3 3 6 C1.35 5.01 -0.3 4.02 -2 3 C-1.34 2.67 -0.68 2.34 0 2 C0.66 2.33 1.32 2.66 2 3 C2 2.34 2 1.68 2 1 C1.34 0.67 0.68 0.34 0 0 Z " fill="#795751" transform="translate(241,148)"/>
<path d="M0 0 C1.32 0.33 2.64 0.66 4 1 C4 1.99 4 2.98 4 4 C2.68 4 1.36 4 0 4 C0 2.68 0 1.36 0 0 Z M-1 4 C0 8 0 8 0 8 Z " fill="#F0EDEE" transform="translate(154,116)"/>
<path d="M0 0 C0.99 0.33 1.98 0.66 3 1 C2.40138258 3.35171131 1.73075648 5.6859378 1 8 C0.01 8.495 0.01 8.495 -1 9 C-0.67 6.03 -0.34 3.06 0 0 Z " fill="#E1D4D3" transform="translate(255,104)"/>
<path d="M0 0 C4.875 2.75 4.875 2.75 6 5 C4.68 5.33 3.36 5.66 2 6 C1.34 4.02 0.68 2.04 0 0 Z " fill="#E7DDDF" transform="translate(240,46)"/>
<path d="M0 0 C2.97 0.33 5.94 0.66 9 1 C8.67 1.99 8.34 2.98 8 4 C2.25 2.25 2.25 2.25 0 0 Z " fill="#7C615D" transform="translate(232,41)"/>
</g>
</svg>
