<svg version="1.1" id="Layer_1" xmlns="http://www.w3.org/2000/svg" xmlns:xlink="http://www.w3.org/1999/xlink" x="0px" y="0px"
	 width="100%" viewBox="0 0 287 287" enable-background="new 0 0 287 287" xml:space="preserve">
<path fill="#000000" opacity="1.000000" stroke="none" 
	d="
M163.000000,288.000000 
	C108.666672,288.000000 54.833347,288.000000 1.000015,288.000000 
	C1.000010,192.333359 1.000010,96.666702 1.000005,1.000040 
	C96.666634,1.000027 192.333267,1.000027 287.999939,1.000013 
	C287.999939,96.666626 287.999939,192.333252 287.999969,287.999939 
	C246.500000,288.000000 205.000000,288.000000 163.000000,288.000000 
M137.258698,177.619019 
	C137.918411,179.347900 138.578110,181.076782 139.130356,183.563095 
	C141.951584,189.776749 144.138153,196.388962 147.734619,202.115753 
	C153.984894,212.068298 162.039948,220.492584 171.240540,228.015610 
	C186.732773,240.683167 204.532120,246.433212 225.024750,247.934036 
	C232.243057,247.934036 239.461365,247.934036 247.018097,247.934036 
	C247.018097,243.408035 247.232971,239.287766 246.928085,235.206329 
	C246.774033,233.144028 245.679413,231.151993 244.194107,229.031006 
	C234.459152,228.685699 224.724213,228.340408 214.707825,227.312958 
	C210.240326,225.830841 205.812500,224.212982 201.297546,222.893204 
	C189.834091,219.542282 180.702744,212.293076 172.985809,203.869263 
	C161.033981,190.822586 154.824188,174.709152 152.174255,157.241379 
	C151.663147,153.872284 152.982056,152.139236 156.375839,152.100616 
	C162.646362,152.029251 168.917831,152.043076 175.188309,151.968643 
	C183.817856,151.866196 192.538986,152.465057 201.055801,151.419174 
	C216.119568,149.569305 224.688904,155.504776 226.235550,171.091492 
	C226.146393,179.543869 226.033813,187.996216 226.023972,196.448685 
	C226.023346,196.978378 226.826447,197.509033 227.859787,198.495010 
	C229.328476,198.992538 230.783081,199.860809 232.268524,199.917236 
	C236.522766,200.078842 240.789490,199.911163 245.732162,199.650803 
	C246.151230,194.834564 246.928482,190.016678 246.906250,185.202469 
	C246.872040,177.802353 246.288666,170.404770 245.916595,162.239517 
	C242.348587,148.000137 234.043686,138.380814 218.782990,134.310532 
	C212.458725,134.207047 206.134583,134.026917 199.810150,134.015427 
	C184.873215,133.988281 169.936111,134.041382 154.257324,133.826538 
	C153.534271,131.400238 152.277618,128.996689 152.173096,126.544037 
	C151.379944,107.934517 143.999863,91.895699 133.561920,76.901802 
	C125.691399,65.595924 115.475266,56.783581 103.560738,50.400166 
	C94.791962,45.702133 85.231178,41.977570 75.585655,39.579769 
	C67.808105,37.646332 59.369270,38.440388 51.236053,37.854488 
	C38.953033,36.969643 38.957565,36.906799 38.949574,49.290226 
	C38.944607,56.983109 38.950951,57.188938 46.877518,56.944466 
	C61.347652,56.498161 75.327850,57.346771 88.688965,64.320953 
	C101.108757,70.803787 110.966415,79.627327 119.385368,90.628883 
	C127.045395,100.638702 130.019760,112.486168 133.758957,124.056786 
	C135.793060,130.351135 133.825623,134.442337 128.665588,134.274796 
	C115.372345,134.183624 102.078667,134.131470 88.786064,133.982849 
	C83.162483,133.919968 77.541176,133.654190 71.514275,132.956741 
	C68.538757,130.863480 65.270355,129.072647 62.688786,126.572594 
	C60.913013,124.852905 60.089863,122.149536 58.907825,118.962509 
	C58.928860,109.241531 58.979126,99.520409 58.927307,89.799812 
	C58.921917,88.788445 58.311043,87.780304 57.403252,86.161728 
	C53.090015,86.093002 48.743198,85.692780 44.480648,86.124512 
	C42.856510,86.289009 40.414600,88.144508 40.099224,89.607437 
	C39.206337,93.749199 38.788181,98.106003 38.980057,102.341995 
	C39.254230,108.394829 40.664082,114.405266 40.810154,120.452621 
	C41.002617,128.420761 42.571552,135.787384 48.631706,141.246994 
	C54.091057,146.165314 59.783401,151.105637 68.319061,151.764694 
	C88.539986,151.801010 108.760918,151.837311 129.769287,152.013123 
	C134.146286,152.448105 133.803436,155.724258 134.182266,158.873260 
	C134.915466,164.967834 136.010910,171.018829 136.971176,177.009872 
	C136.971176,177.009872 136.893158,176.994934 137.258698,177.619019 
M37.605778,221.243378 
	C40.752270,222.163971 44.004089,222.824493 47.027515,224.048965 
	C62.345097,230.252472 71.952492,241.476517 76.000084,257.496582 
	C77.101204,261.854736 80.419510,262.249817 84.170341,261.999786 
	C87.565193,261.773499 88.619934,260.219849 89.257446,256.747986 
	C91.763138,243.102341 98.933037,232.404541 111.631699,226.273666 
	C117.033051,223.665924 123.027641,222.286942 128.878159,220.307083 
	C129.787903,210.900711 129.498489,210.843475 120.380531,208.245117 
	C116.405006,207.112228 112.607368,204.996307 109.057144,202.797028 
	C98.373718,196.178864 91.821304,186.492493 89.134209,174.267151 
	C88.386284,170.864365 86.677490,168.704941 83.225327,168.906937 
	C80.156906,169.086472 76.839775,168.748367 75.687386,173.402100 
	C74.412453,178.550659 72.603806,183.865845 69.713135,188.239761 
	C66.110397,193.691162 61.164127,198.254654 56.229836,203.539383 
	C53.600464,204.345917 50.919682,205.016922 48.353630,205.990356 
	C44.383793,207.496292 40.187153,208.730606 36.661312,210.980560 
	C33.680450,212.882751 34.257729,219.357605 37.605778,221.243378 
M155.347824,61.149609 
	C154.560196,62.821266 153.155212,64.470680 153.094009,66.168510 
	C152.855438,72.787987 153.042633,79.422806 153.170395,86.750076 
	C157.166580,95.716736 161.398087,104.469299 168.873932,111.278244 
	C179.160995,120.647621 191.211655,123.202225 204.855209,123.201317 
	C223.807404,123.200058 240.640442,110.623741 247.390701,94.281441 
	C252.185425,82.673485 253.961258,70.873711 249.517014,58.804008 
	C245.816086,48.753029 240.101608,40.449303 230.975418,33.992302 
	C222.120758,27.727430 212.880402,24.610710 202.308990,24.723892 
	C188.552780,24.871170 176.598801,29.970009 166.999619,39.526470 
	C161.290619,45.210045 155.189194,51.347240 155.347824,61.149609 
z"/>
<path fill="#664745" opacity="1.000000" stroke="none" 
	d="
M67.900230,150.977936 
	C59.783401,151.105637 54.091057,146.165314 48.631706,141.246994 
	C42.571552,135.787384 41.002617,128.420761 40.810154,120.452621 
	C40.664082,114.405266 39.254230,108.394829 38.980057,102.341995 
	C38.788181,98.106003 39.206337,93.749199 40.099224,89.607437 
	C40.414600,88.144508 42.856510,86.289009 44.480648,86.124512 
	C48.743198,85.692780 53.090015,86.093002 57.662315,86.950027 
	C57.933796,92.210350 57.843403,96.685600 57.983429,101.153625 
	C58.179203,107.400520 58.546833,113.642021 58.840935,119.885834 
	C60.089863,122.149536 60.913013,124.852905 62.688786,126.572594 
	C65.270355,129.072647 68.538757,130.863480 72.149780,133.330460 
	C74.471245,134.140976 76.155304,134.948608 77.843452,134.957245 
	C94.956657,135.044739 112.070534,135.001785 129.184219,134.995422 
	C133.825623,134.442337 135.793060,130.351135 133.758957,124.056786 
	C130.019760,112.486168 127.045395,100.638702 119.385368,90.628883 
	C110.966415,79.627327 101.108757,70.803787 88.688965,64.320953 
	C75.327850,57.346771 61.347652,56.498161 46.877518,56.944466 
	C38.950951,57.188938 38.944607,56.983109 38.949574,49.290226 
	C38.957565,36.906799 38.953033,36.969643 51.236053,37.854488 
	C59.369270,38.440388 67.808105,37.646332 75.585655,39.579769 
	C85.231178,41.977570 94.791962,45.702133 103.560738,50.400166 
	C115.475266,56.783581 125.691399,65.595924 133.561920,76.901802 
	C143.999863,91.895699 151.379944,107.934517 152.173096,126.544037 
	C152.277618,128.996689 153.534271,131.400238 154.957214,134.203781 
	C157.135437,134.719742 158.613602,134.977219 160.092148,134.979233 
	C179.843307,135.005981 199.594543,134.996994 219.345749,134.996902 
	C234.043686,138.380814 242.348587,148.000137 245.571671,162.866058 
	C245.168274,175.619370 245.109787,187.746170 245.051315,199.872955 
	C240.789490,199.911163 236.522766,200.078842 232.268524,199.917236 
	C230.783081,199.860809 229.328476,198.992538 227.550797,197.845306 
	C227.418503,194.749023 227.950424,192.265991 227.703644,189.862915 
	C227.030731,183.310043 230.241425,176.470840 226.276260,170.173431 
	C224.688904,155.504776 216.119568,149.569305 201.055801,151.419174 
	C192.538986,152.465057 183.817856,151.866196 175.188309,151.968643 
	C168.917831,152.043076 162.646362,152.029251 156.375839,152.100616 
	C152.982056,152.139236 151.663147,153.872284 152.174255,157.241379 
	C154.824188,174.709152 161.033981,190.822586 172.985809,203.869263 
	C180.702744,212.293076 189.834091,219.542282 201.297546,222.893204 
	C205.812500,224.212982 210.240326,225.830841 215.160019,227.876251 
	C218.143066,228.959366 220.659988,229.831299 223.207428,229.932007 
	C230.433029,230.217728 237.671112,230.188187 244.909561,230.732864 
	C244.927475,234.809418 244.782333,238.445221 244.995804,242.059814 
	C245.222656,245.901062 243.645676,247.360168 239.826538,247.320282 
	C234.588928,247.265564 229.346954,247.628830 224.106842,247.812973 
	C204.532120,246.433212 186.732773,240.683167 171.240540,228.015610 
	C162.039948,220.492584 153.984894,212.068298 147.734619,202.115753 
	C144.138153,196.388962 141.951584,189.776749 139.218384,182.864517 
	C138.501999,180.442276 137.697571,178.718597 136.893158,176.994934 
	C136.893158,176.994934 136.971176,177.009872 137.072144,176.602036 
	C136.256958,169.000671 135.383621,161.801285 134.404739,154.616302 
	C133.978821,151.490112 131.909943,150.544479 128.526657,150.970551 
	C108.006752,150.944992 87.953491,150.961472 67.900230,150.977936 
z"/>
<path fill="#674947" opacity="1.000000" stroke="none" 
	d="
M156.014801,60.716061 
	C155.189194,51.347240 161.290619,45.210045 166.999619,39.526470 
	C176.598801,29.970009 188.552780,24.871170 202.308990,24.723892 
	C212.880402,24.610710 222.120758,27.727430 230.975418,33.992302 
	C240.101608,40.449303 245.816086,48.753029 249.517014,58.804008 
	C253.961258,70.873711 252.185425,82.673485 247.390701,94.281441 
	C240.640442,110.623741 223.807404,123.200058 204.855209,123.201317 
	C191.211655,123.202225 179.160995,120.647621 168.873932,111.278244 
	C161.398087,104.469299 157.166580,95.716736 153.493118,86.167854 
	C154.548828,77.295776 155.281815,69.005920 156.014801,60.716061 
M222.382858,96.913765 
	C230.139511,88.669975 234.287125,79.643227 231.540909,67.738991 
	C227.805923,51.548660 210.818527,41.493469 195.919647,44.395363 
	C185.222488,46.478878 173.489319,57.131012 172.180832,67.516685 
	C170.855255,78.038025 173.203278,87.276489 180.989700,95.747444 
	C190.078720,105.635536 211.430511,107.508530 222.382858,96.913765 
z"/>
<path fill="#674846" opacity="1.000000" stroke="none" 
	d="
M56.797981,203.201523 
	C61.164127,198.254654 66.110397,193.691162 69.713135,188.239761 
	C72.603806,183.865845 74.412453,178.550659 75.687386,173.402100 
	C76.839775,168.748367 80.156906,169.086472 83.225327,168.906937 
	C86.677490,168.704941 88.386284,170.864365 89.134209,174.267151 
	C91.821304,186.492493 98.373718,196.178864 109.057144,202.797028 
	C112.607368,204.996307 116.405006,207.112228 120.380531,208.245117 
	C129.498489,210.843475 129.787903,210.900711 128.878159,220.307083 
	C123.027641,222.286942 117.033051,223.665924 111.631699,226.273666 
	C98.933037,232.404541 91.763138,243.102341 89.257446,256.747986 
	C88.619934,260.219849 87.565193,261.773499 84.170341,261.999786 
	C80.419510,262.249817 77.101204,261.854736 76.000084,257.496582 
	C71.952492,241.476517 62.345097,230.252472 47.027515,224.048965 
	C44.004089,222.824493 40.752270,222.163971 37.203682,220.632477 
	C35.884556,215.347321 37.353336,210.998856 41.838856,209.989822 
	C47.452816,208.726944 52.414886,206.808395 56.797981,203.201523 
z"/>
<path fill="#D4CDCC" opacity="1.000000" stroke="none" 
	d="
M56.513908,203.370453 
	C52.414886,206.808395 47.452816,208.726944 41.838856,209.989822 
	C37.353336,210.998856 35.884556,215.347321 36.868179,220.442337 
	C34.257729,219.357605 33.680450,212.882751 36.661312,210.980560 
	C40.187153,208.730606 44.383793,207.496292 48.353630,205.990356 
	C50.919682,205.016922 53.600464,204.345917 56.513908,203.370453 
z"/>
<path fill="#908180" opacity="1.000000" stroke="none" 
	d="
M219.064362,134.653717 
	C199.594543,134.996994 179.843307,135.005981 160.092148,134.979233 
	C158.613602,134.977219 157.135437,134.719742 155.328094,134.321533 
	C169.936111,134.041382 184.873215,133.988281 199.810150,134.015427 
	C206.134583,134.026917 212.458725,134.207047 219.064362,134.653717 
z"/>
<path fill="#A79998" opacity="1.000000" stroke="none" 
	d="
M68.109650,151.371307 
	C87.953491,150.961472 108.006752,150.944992 128.528442,151.185883 
	C128.996857,151.443237 128.981842,151.873627 128.981842,151.873627 
	C108.760918,151.837311 88.539986,151.801010 68.109650,151.371307 
z"/>
<path fill="#B2A8A5" opacity="1.000000" stroke="none" 
	d="
M226.255905,170.632462 
	C230.241425,176.470840 227.030731,183.310043 227.703644,189.862915 
	C227.950424,192.265991 227.418503,194.749023 227.248718,197.617416 
	C226.826447,197.509033 226.023346,196.978378 226.023972,196.448685 
	C226.033813,187.996216 226.146393,179.543869 226.255905,170.632462 
z"/>
<path fill="#90817F" opacity="1.000000" stroke="none" 
	d="
M128.924896,134.635101 
	C112.070534,135.001785 94.956657,135.044739 77.843452,134.957245 
	C76.155304,134.948608 74.471245,134.140976 72.352058,133.592407 
	C77.541176,133.654190 83.162483,133.919968 88.786064,133.982849 
	C102.078667,134.131470 115.372345,134.183624 128.924896,134.635101 
z"/>
<path fill="#917D7B" opacity="1.000000" stroke="none" 
	d="
M224.565796,247.873505 
	C229.346954,247.628830 234.588928,247.265564 239.826538,247.320282 
	C243.645676,247.360168 245.222656,245.901062 244.995804,242.059814 
	C244.782333,238.445221 244.927475,234.809418 244.935913,230.444016 
	C244.974670,229.512787 244.992371,229.320496 245.010071,229.128204 
	C245.679413,231.151993 246.774033,233.144028 246.928085,235.206329 
	C247.232971,239.287766 247.018097,243.408035 247.018097,247.934036 
	C239.461365,247.934036 232.243057,247.934036 224.565796,247.873505 
z"/>
<path fill="#A38D8B" opacity="1.000000" stroke="none" 
	d="
M245.391739,199.761871 
	C245.109787,187.746170 245.168274,175.619370 245.582520,163.249359 
	C246.288666,170.404770 246.872040,177.802353 246.906250,185.202469 
	C246.928482,190.016678 246.151230,194.834564 245.391739,199.761871 
z"/>
<path fill="#968786" opacity="1.000000" stroke="none" 
	d="
M129.375565,151.943375 
	C128.981842,151.873627 128.996857,151.443237 128.995087,151.227921 
	C131.909943,150.544479 133.978821,151.490112 134.404739,154.616302 
	C135.383621,161.801285 136.256958,169.000671 137.064667,176.641037 
	C136.010910,171.018829 134.915466,164.967834 134.182266,158.873260 
	C133.803436,155.724258 134.146286,152.448105 129.375565,151.943375 
z"/>
<path fill="#8C807E" opacity="1.000000" stroke="none" 
	d="
M244.602081,229.079605 
	C244.992371,229.320496 244.974670,229.512787 244.930634,229.993927 
	C237.671112,230.188187 230.433029,230.217728 223.207428,229.932007 
	C220.659988,229.831299 218.143066,228.959366 215.300735,228.217331 
	C224.724213,228.340408 234.459152,228.685699 244.602081,229.079605 
z"/>
<path fill="#B1A19C" opacity="1.000000" stroke="none" 
	d="
M58.874382,119.424171 
	C58.546833,113.642021 58.179203,107.400520 57.983429,101.153625 
	C57.843403,96.685600 57.933796,92.210350 57.951241,87.254494 
	C58.311043,87.780304 58.921917,88.788445 58.927307,89.799812 
	C58.979126,99.520409 58.928860,109.241531 58.874382,119.424171 
z"/>
<path fill="#C0B6B3" opacity="1.000000" stroke="none" 
	d="
M155.681305,60.932835 
	C155.281815,69.005920 154.548828,77.295776 153.443665,85.818771 
	C153.042633,79.422806 152.855438,72.787987 153.094009,66.168510 
	C153.155212,64.470680 154.560196,62.821266 155.681305,60.932835 
z"/>
<path fill="#968786" opacity="1.000000" stroke="none" 
	d="
M137.075928,177.306976 
	C137.697571,178.718597 138.501999,180.442276 139.272110,182.485809 
	C138.578110,181.076782 137.918411,179.347900 137.075928,177.306976 
z"/>
<path fill="#000000" opacity="1.000000" stroke="none" 
	d="
M222.132965,97.177414 
	C211.430511,107.508530 190.078720,105.635536 180.989700,95.747444 
	C173.203278,87.276489 170.855255,78.038025 172.180832,67.516685 
	C173.489319,57.131012 185.222488,46.478878 195.919647,44.395363 
	C210.818527,41.493469 227.805923,51.548660 231.540909,67.738991 
	C234.287125,79.643227 230.139511,88.669975 222.132965,97.177414 
z"/>
</svg>